<?xml version="1.0" encoding="UTF-8"?>
<svg id="Layer_1" xmlns="http://www.w3.org/2000/svg" version="1.1" viewBox="0 0 1024 1024">
  <!-- Generator: Adobe Illustrator 30.0.0, SVG Export Plug-In . SVG Version: 2.1.1 Build 123)  -->
  <defs>
    <style>
      .st0 {
        fill: #fefefe;
      }

      .st1 {
        fill: #766e69;
      }

      .st2 {
        fill: #d4b896;
      }

      .st3 {
        fill: #2a2529;
      }

      .st4 {
        fill: #a45b30;
      }
    </style>
  </defs>
  <path class="st3" d="M352,672c-7.3,0-14.7,0-22,0v-82h-18v20h-22v22h-46v-22h-21v-64h21v-18.5l1.5-1.5h44.5v20h22v19h18v-124h-17.5c-3.1,0-.5,8.1-.5,9.5,0,3.4-1.2,6.2,0,9.4-7.2,2.7-14.5-1-22,0v22h-60v-22h-19.5c-.3,0-1.4,1.4-2.5,1v-66h22v-21h60v21h22v20h18v-60h-19v-79h-14l1,22h-21v19h-47v-19h-22v-69h22v-21h47v21h20v20h14v-41h-21v-45h21v-42h60.5l1.5-1.5v-20.5h43v-22h37v-21h125v18.5c0,.3-1.4,1.4-1,2.5h31c-.1,5.2.2,10.4,0,15.5,0,2.5-2,4.8.5,6.5h47.5v22h60v108h22v-21h57v21h23v69h-23v19h-57v-19h-22v38h-20v79h19v-20h23v-21h57v21h23v65h-23v22h-57c0-7.3,0-14.7,0-22h1c18.3,0,36.7,0,55,0,0-7,0-14,0-21,0-7.6,0-15.4,0-23,0-6.6,0-13.4,0-20l-56,1v18c-2.1.1-5.7,1.7-8.5,2-4.7.4-9.8-.3-14.5,0v23c6.6.6,14.7-.9,21,0,.3,0,.7,0,1,0,1.8.9,1,16.7,1,20-7.7,0-15.3,0-23,0v-19h-19v124h19v-38l61-1v20h24v64h-24v22h-61v-22h-19v62c-7.3,0-14.7,0-22,0,0,7,0,14,0,21h-18v27h-20v304h-41v-52.6c0,0-2-1.9-2-1.9,3.4-.6,2.7-7.3.5-9.5h-14.5v-1h37v-19h-22c.7-1.5,1-2.7,1.1-4.4,1.1-45,.2-91.4,0-136.6h21v-20h-21c0-7.3-1-15-1-22v-1h23v-36h17v-26h-16v25h-2c-1.1-2.4,1-6.2,1-7.5v-18.5h38v-47h1v26c6,0,12,0,18,0,.5-105.6-.4-211.4,0-317h-19v-19h18v1h-17v17h18v-48l1,8c2.4-1.9,4.5-.1,6.5-.2,2.3-.1,10.1-3,9.5,1.2h-16v21h19v-193h-39v-20l-48-1v-23h-32l2-1v-20c-6.7,0-13.3,0-20,0-34.7-.2-69.4.1-104,0v21c-8.3.3-16.7-.5-25,0-5.3.3-11.5,1.9-17,2l1,19h15l1-20v21c0,.3,0,.7,0,1h-55c-.2,6.2.3,12.4,0,18.6,0,1.3-1,2.3-1,2.4-6.2,1.8-13.5.9-20,1l-21-1c0,21.6,0,43.3,0,65v1c0,35.3,0,70.7,0,106,0,11.7-.5,23.8,0,35.5,0,1.2-.8,3.7,1,3.5v-20.5l6.5-3.5c1.7,1.3.8,3.8,3.5,3v-2.9c0,0,8-1.1,8-1.1l1,7v-20h-19v-1h20c.1,6.5-.1,13.1,0,19.6,0,1.3,1,2.3,1,2.4,0,5.2-1,9.7-1,15v4c0,6.6-.2,13.4,0,20,0,1,0,2,0,3v38c0,2.3,0,4.7,0,7,0,1.3,0,2.7,0,4,0,.7,0,1.3,0,2v1c0,1.3,0,2.7,0,4s0,2.7,0,4c0,1.7,0,3.3,0,5v16c0,7,0,14,0,21,0,1,0,2,0,3,0,.7,0,1.3,0,2,0,1-.1,2,0,3,0,.5.5.9,1,1,.5,4.9-.9,9.2-1,14-.1,3.3,0,6.7,0,10,0,4.6,1,8.5,1,13,0,0-1,.3-1,1s0,1.3,0,2v6c0,3,0,6,0,9,0,2.3,0,4.7,0,7,0,7.1-.9,15.3,1,22,0,.7,0,1.3,0,2,0,1.1,0,2.9,0,4-.1,10.6,0,20.9,0,31.5.1,11.5-.2,23,0,34.5-.9,8.6-1,17.1-1,26,7,0,14,0,21,0v21h20v27c.6.6,14.2-.4,17,0,.3,0,.7,0,1,0v36h17v1c0,7.3,0,14.7,0,22h-17c.3,5.7-.4,11.8,0,17.5,0,.8-.4,2.7,1,2.5h16l1,141h-18v19h17l1,22h14c0-2.8-1.1-4.7,2-5.5l-2-1.5,2-.5-2-.5v-2l2-1-5-1h5s-2-2-2-2v-1c3.6.4,2-4.7,1-7h21v65h-20v-42h-17v42h-38v-304h-18v-27h-20c0-7,0-14,0-21h0ZM738,231v19h55c2.3-6.4.4-14.3,1-21l-56,2ZM231,250c0,15.6,0,31.4,0,47h45c0-.7,0-1.3,0-2,.3-6.5,0-13.4,0-20,7.1-.1,14.1-2,21,0v-24c-5.8-.2-11.7.3-17.5,0-1.5,0-2.9-1-3.4-1v-20h-46c1.7,6.5,1,13.4,1,20h0ZM738,274l-1-23h-22v25l23-1,1,1v1l-1,20h56v-23c0-2.1,1.2-23,0-23h-56c0,5.6-.1,11.4,0,17,0,1.5-.2,5.1,0,6ZM333,335v1h12v-1h-12ZM231,398c-.3,5.1.2,10.4,0,15.5l1,1.5c0,8.3,0,16.7,0,25l-1,20h57c0-.7,0-1.3,0-2,.3-6-.2-12,0-18h22v-24h-20c-.5,0-1.4-.9-2-1v-18l1-.5-1-.5h-57l-1,1.5,1,.5h0ZM245,548c-.1.2,0,.6,0,1-.1.6,0,1.3,0,2-.7,12.1-.1,25.8,0,38,0,6.6-1.2,15.4,1.5,21h41.5c-.2-7,.2-14,0-21h22v-23c-6.4-.5-13.8.7-20,0-.3,0-.7,0-1,0l-1-1v-18c-5.4.7-41.8-1.3-43,1h0ZM736,565c-2.5,2.5-16.7.2-21,1v23h21v21h39c0-4,0-8,0-12,0-3.3,0-6.7,0-10,0-7.7,0-15.3,0-23,0-6,0-12,0-18h-39v18Z"/>
  <path class="st1" d="M444,756c1.9,7.4.9,15.5,1,23v1c0,5-.1,10,0,15,0,1,0,2,0,3,0,1.7,1,4,1,6.5.6,44.8-.8,89.7-.6,134.5,0,1.2,0,1.3,1.1,2h16.5c.1,4.2-.2,8.4,0,12.5,0,1.9-1,4,2,3.5v2h1v-18l13-.5-14-.5c0-46.9-1-94.4-1-141s1-13.3,1-20v-22h16c0,6.7.9,14.8,1,22v1c0,5.7,0,11.3,0,17h58v-18l1-1,1-21v-1c4.2.3,8.7,0,13,0h2c0,8,1,16.4,1,24v19c0,45,0,91.4-.9,136.6,0,1.2,0,2.5-1.1,3.4-4.2,1.9-9.4.8-14,1l-2.1-3.4c1-44.3-1.1-88.8,0-133.1,0-1.7.3-2.9,1.1-4.4h-59l-1,141c13.2,0,26.4,0,39.5,0,6.2,0,12.1.2,18.5,0,1.8,1,2.1,1.1,2,3.3-.2,3-.5,10.9-1,13-.2.8-2.7.7-2,2.7-18.7,0-37.4,0-56,0v65h-17v-65h-21c1,2.3,2.6,7.5-1,7v1l2,2h-5s5,1,5,1l-2,1v2l2,.5-2,.5,2,1.5c-3.1.8-2,2.7-2,5.5h-14l-1-22h-17v-19h18l-1-141h-16c4.5-2.8,11.7.8,16-2,0-5.3,0-10.7,0-16v-2c0-7.3,0-14.7,0-22h1c5.1.2,9.9-.8,15-1h0Z"/>
  <path class="st1" d="M594,757c0,7,1,14.7,1,22,0,6,0,12,0,18v2c.2,45.2,1.2,91.5,0,136.6,0,1.7-.3,2.9-1.1,4.4h22v19h-37v1h14.5c2.2,2.2,2.9,8.9-.5,9.5l2.1,1.9v52.6h-18.1v-42h17v-1h-14c-1.3-6-.2-12.6-.9-18.6-.1-1.2-1.9-3.1-2.1-7.9-2.2-51.3,1.7-104.1,0-155.6v-43c5.5,1.8,11.3.8,17,1Z"/>
  <path class="st3" d="M567,799h10c1.7,51.4-2.2,104.3,0,155.6.2,4.8,2,6.7,2.1,7.9.7,6-.3,12.5.9,18.6h14v1h-17v42h-20v-65c6.3,0,12.7,0,19,0v-18l-19-1-1-1c1.1-.8,1-2.1,1.1-3.4.9-45.2.9-91.6.9-136.6h9Z"/>
  <path class="st3" d="M538,959h3l-1,65h-58v-65c18.6,0,37.3,0,56,0h0Z"/>
  <path class="st1" d="M557,940l19,1v18c-6.3,0-12.7,0-19,0v65h-17l1-65c5.3,0,10.7,0,16,0v-19Z"/>
  <polygon class="st2" points="1013 0 1024 0 1024 1024 1023 1024 1023 1.6 1013 0"/>
  <rect class="st1" x="428" y="982" width="17" height="42"/>
  <polygon class="st2" points="1 1024 0 1024 0 605 1 1024"/>
  <path class="st2" d="M664,0c-7.2,1.7-16.8,1.7-24,0h24Z"/>
  <path class="st2" d="M0,45v-23c1.7,6.8,1.7,16.2,0,23Z"/>
  <path class="st2" d="M3,0C-.8,2.5,1.3,10.2,1.1,14.6,1,15.9,0,16.9,0,17V0h3,0Z"/>
  <path class="st2" d="M0,342v-14c1.7,3.4,1.7,10.4,0,14Z"/>
  <path class="st2" d="M457,0c-2.7,1.7-9.1,1.7-12,0h12Z"/>
  <path class="st2" d="M739,0c-2.3,1.7-8.5,1.7-11,0h11Z"/>
  <path class="st2" d="M754,0c-2.3,1.7-8.5,1.7-11,0h11Z"/>
  <path class="st2" d="M676,0c-1.9,1.7-7.1,1.7-9,0h9Z"/>
  <path class="st2" d="M10,0c-.7,1.6-4.3,1.6-5,0h5Z"/>
  <path class="st2" d="M439,0c-.7,1.6-4.3,1.6-5,0h5Z"/>
  <path class="st2" d="M568,0c-.7,1.6-4.3,1.6-5,0h5Z"/>
  <path class="st2" d="M630,0c-1.3,1.4-2.8,1.4-4,0h4Z"/>
  <path class="st2" d="M691,0c-1,1.2-2,1.2-3,0h3Z"/>
  <path class="st2" d="M600,0c-1,1.2-2,1.2-3,0h3Z"/>
  <path class="st4" d="M557,78c6.7,0,13.3,0,20,0v20l-2,1h32v23l48,1v20h39v193h-19v-21h16c.6-4.1-7.2-1.3-9.5-1.2-2,0-4.1-1.6-6.5.2l-1-8v48h-18v-17h17v-1h-18v19h19c-.4,105.6.5,211.4,0,317-6,0-12,0-18,0v-26h-1v47h-38v18.5c0,1.3-2.1,5.1-1,7.5h2v-25h16v26h-17v36h-22v-1c3,.6,1.9-1.5,2-3.5,1.3-38.9-.9-78.1,0-117.1l1.5-3.5h34c.3,0,1.5-1.3,2.5-1v-21h19v-43h-19v-21h-40v21h-18v65l-1,125h-19c0-86,0-172,0-258,.3,0,.7,0,1,0,.1,0,1.1,1,2.4,1,2.9,0,15.7.9,16.6-2,0-12.6,0-25.4,0-38h18l1,19h37v10h-16v1h16v8c-4.3.5-8.2-1.1-12.5-1.1-2.1,0-4.1,1-6,1.1-4.3,0-8.7-.2-13,0-1.2,0-3.7-.8-3.5,1h37c-2.5-12.8.9-25.9,0-39h19c1.2-12.6-1.6-28.3,0-40.6.2-1.9,1.9-1,2.2-2.9.4-3-.8-18.9,0-19.6h9l-9-1v-39h-1v59h-20v-19h-40v19h-17v-40l17-1c.3,0,.7,0,1,0l1-77h38c0-7,0-14,0-21,6,0,12,0,18,0v20l-5,.5,5,.5v18h1v-85c-5-.7-12.5,1-17,0-.1,0-1-1.4-2-1v-21h-40c.1,7-.2,14,0,21,0,.3,0,.7,0,1-6,0-12,0-18,0,0,15.3,0,30.7,0,46v1c0,6.6,0,13.4,0,20l-1,76c-4.2.7-14-1.4-17,1h-1l-1,123h-18v259h-56v-253.6c.5-1.5-.7-2.5-1-3.4-.2-.5.2-1.4,0-2l-17,1c0-.7,0-1.3,0-2,3,.6,1.9-1.5,2-3.5,1.3-39.1-1-78.4,0-117.5h14v20l-13,.5,13,.5v62l-13,.5,13,.5v30h2v-115h-18v-98h-18v-46c-6.3,0-12.7,0-19,0,0-2.1,1.1-22,0-22h-35c.4,6-.6,12.7,0,18.6.2,2,.1,2.4,2.1,3.4h-2c-6.6,0-13.4,0-20,0v46c6.6,0,13.4,0,20,0,0,11.1.5,22.3-.6,33.3l1.6,5.7v-18l34,1v1h-2v14h-26v2h27c-2.8,11.9.4,25.5-.9,37.6-.3,2.3-2.1.9-2.1,1.9l3,.5-1.1,18.3c6.1,4.8,13,.7,20,1.7v40c-6,.2-12-.2-18,0v-19h-35v82h35v-82h-35v20c-6.6,0-13.4,0-20,0v42c1.9,1.9,16.1,1,20,1v19h35v-19c6,0,12,0,18,0l1,39,18,1c0,85.6,0,171.4,0,257-6.3.1-12.7-.2-19,0v-125c0-7-.1-14,0-21,0-1.5,1-3.4,1-5.5.2-12.8-.2-25.7,0-38.6-.6-.6-14.3.6-17,0-.1,0-1-1.4-2-1v-20h-35c0,7,0,14,0,21-6.6,0-13.4,0-20,0v42l1,1.5c4.8,2.1,13.9-.4,19-.5,0,7.3,0,14.7,0,22h35c0,41.6.1,83.3,0,125h-1l-15-1v-33.5s-1-1.5-1-1.5c-.3,0-.7,0-1,0l-16-1v-24.6s-1-1.5-1-1.5h-20v-21c-7,0-14,0-21,0,0-8.9,0-17.4,1-26,0-.2,1.8-2.1,1.1-3.4v-246.1c-1.5-1.6-1,1.1-1.1,2-.2,5.4.3,10.8,0,16.1,0,1.3-1,2.3-1,2.4v-38c0,.1,1,1.1,1,2.4.2,3.3-.2,6.7,0,10.1,0,1.2-.8,3.7,1,3.5v-57h18v16h1v-17h-20c0-.1-1-1.1-1-2.4,0-6.5.1-13.1,0-19.6h-20v1h19v20l-1-7-7.9,1.1v2.9c-2.8.7-1.9-1.7-3.6-3l-6.5,3.5v20.5c-1.8.2-1-2.3-1-3.5-.5-11.7,0-23.8,0-35.5v-107l1-64c6.6,0,13.4,0,20,0s13.8.8,20-1c-.3,6,.2,12,0,18h-18v-16h-1v17h20l1-39c11.1.3,22.3-.4,33.4,0,1.7,0,2.9,2.5,2.6-1.1h1l16,1v20c1.8.2,1-2.3,1-3.5.2-5.8-.2-11.7,0-17.5,0-.3,0-.7,0-1,0-.1,1-1.1,1-2.4.3-6.2-.3-12.4,0-18.6h23v20c1.8.2,1-2.3,1-3.5.2-4.8-.6-10.5,0-15,.2-1.6,1.7-2.8,2-5,.7-5.2-.6-12.1,0-17.6h101v19h-91v1h92v-21h0ZM464,98c-2,.6-7.1-1.3-8,1,2-.6,7.1,1.3,8-1ZM675,180v-28l-1.4,10.5.4,33.5h17v-1h-16v-14h16v-1h-16ZM674,198v26h1v-15c2.5,0,5,.1,7.5,0,1.2,0,3.7.8,3.5-1h-11c0-2.2,0-4.4,0-6.5,0-1.2.8-3.7-1-3.5h0ZM675,237v-6h-1v6h1ZM675,249v-10h-1v27h1v-16h18v-1h-18ZM674.5,267v1c.7-.3.7-.7,0-1ZM674.5,270v1c.7-.3.7-.7,0-1ZM675,275h-1v29h1v-29ZM332,320v10h1v-10h-1ZM373,355h-1v40h1v-40ZM656,460h-1v38h1v-38ZM501,498h-16v1h15v236l-7,.5,7,.5v19h1v-257ZM656,499h-1v66h1v-66ZM393,672h-19v1h17c.6,2.1-1.7,7.8,2,7v-8h0ZM393,682h-2v1h2v-1Z"/>
  <path class="st0" d="M429,610v21h17v1l-1,.5c.3,2.3-1,5.8,1,7.5-.3,31.9,0,63.2,0,95-3,.6-1.9-1.5-2-3.5-1.1-33.1.8-66.4,0-99.5h-15v125h-1v-1c.1-41.7,0-83.3,0-125,0-7.3,0-14.7,0-22l1,1h0Z"/>
  <path class="st0" d="M428,779v2l-16-1v17h16c-4.3,2.8-11.5-.8-16,2-1.4.2-1-1.7-1-2.5-.4-5.7.3-11.8,0-17.5h17Z"/>
  <polygon class="st2" points="411 720 412 721.5 412 755 427 756 411 756 411 720"/>
  <path class="st2" d="M393,693l1,1.5v24.6s16,1,16,1c-2.8-.4-16.4.6-17,0v-27h0Z"/>
  <path class="st2" d="M594,756v1c-5.7-.2-11.5.8-17-1,0-28-.1-56,0-84,3,.6,1.9-1.5,2-3.5.5-12.5-.4-25.1,0-37.5,4.9-.4,10.4,1,15-1,.2,42-.2,84,0,126Z"/>
  <path class="st2" d="M596,779c5.7,2.3,12.9.4,19,1v17h-20c0-6,0-12,0-18h1Z"/>
  <path class="st0" d="M577,609h18c0,7.3,0,14.7,0,22v1c0,5.3,0,10.7,0,16v1c0,3.3,0,6.7,0,10v97h-1c-.2-42,.2-84,0-126,0-6.7,0-13.3,0-20h-17v-1Z"/>
  <path class="st0" d="M596,779h20v20h-21v-2h20v-17c-6.1-.6-13.3,1.3-19-1Z"/>
  <path class="st3" d="M539,940c-6.4.2-12.2,0-18.5,0-13.2,0-26.4.1-39.5,0l1-141h59c-.7,1.5-1,2.7-1.1,4.4-1.1,44.3,1,88.8,0,133.2l2.1,3.4c-1,0-2,0-3,0h0Z"/>
  <path class="st2" d="M482,499c0,84.5-.1,169,0,253.6,0,1.9-1,3.8-1,4.4h-15v-258h16Z"/>
  <path class="st2" d="M555,756l-13-1v-256h14v29.6c0,0-2,1.9-2,1.9l2.1,4v221.6h-1.1Z"/>
  <path class="st3" d="M464,799c0,46.6,1,94.1,1,141v17c-3,.6-1.9-1.5-2-3.5-.2-4.2.1-8.4,0-12.5h-16.5c-1-.8-1.1-.9-1.1-2-.1-44.8,1.3-89.7.6-134.5,0-2.5-1-4.7-1-6.5,5.9,2.1,12.8.5,19,1h0Z"/>
  <path class="st3" d="M558,375c0,3.3,0,6.7,0,10,0,2.3,0,4.7,0,7v106c-.3,0-.7,0-1,0-5.6-.2-11.4.1-17,0v223c0,2.3,0,4.7,0,7v1c0,2.3,0,4.7,0,7v1c0,1.3,0,2.7,0,4,0,.7,0,1.3,0,2s0,1.3,0,2c0,.3,0,.7,0,1,.1,3.1-.2,6,1,9l-1,.5,1,.5c.3,0,.7,0,1,0v1c-2.3.7-2,2.6-2.1,4.5-.3,4.9-.5,12,1.1,16.5l-1,1h-58c0-7.2-1-15.3-1-22,0-.7,1-2.6,1-4.4-.1-84.5,0-169.1,0-253.6.3.9,1.5,1.9,1.1,3.4v253.6c0,0,55.9,0,55.9,0v-259h18l1-123v1h0Z"/>
  <path class="st2" d="M540,780v17h-58c0-5.7,0-11.3,0-17h58Z"/>
  <path class="st0" d="M557,498c0,86,0,172,0,258h-1v-221.6c0,0-2-4-2-4l2.1-1.9v-29.6h-14.1v256l13,1c-4.2,0-8.8.3-13,0-.3,0-.7,0-1,0v-1c-1.2-3-.9-5.9-1-9l1-.5-1-.5c0-.7,0-1.3,0-2l1-1.5-1-.5c0-1.3,0-2.7,0-4l1-.5-1-.5c0-2.3,0-4.7,0-7l1-.5-1-.5c0-2.3,0-4.7,0-7l1-.5-1-.5v-23l1-.5-1-.5v-3l1-.5-1-.5v-3l1-.5-1-.5v-42c1.6-.4,1.5-3.7,0-4v-10c1.7-1.3,1.7-5.7,0-7v-93l1-.5-1-.5v-2l1-1.5-1-.5v-29c5.6.1,11.4-.2,17,0h0Z"/>
  <path class="st3" d="M577,638c-.3,3.5,0,7.4,0,11v1c-.1,7.3,0,14.7,0,22-.1,28,0,56,0,84v23c-5.9,2.1-12.8.5-19,1,0-7.6-1-16-1-24h19l1-125v7h0Z"/>
  <path class="st0" d="M465,496c0,.7,0,1.3,0,2l17-1c.2.6-.2,1.5,0,2h-16v258h-1v-1c0-85.7,0-171.3,0-257l-18-1c0-.7,0-1.4,0-2,1.7-2.7,1.7-9.1,0-12,0-1.7,0-3.3,0-5,0-.1,1-1.1,1-2.4.2-4.7-.2-9.4,0-14.1,0-1.2-.8-3.7,1-3.5v38h15l1-121c1.4,39.6-1.9,80.6,0,120h0Z"/>
  <path class="st3" d="M446,756c6.3-.2,12.7.1,19,0v23h-20c0-7.5.9-15.6-1-23,.7,0,1.3,0,2,0Z"/>
  <path class="st2" d="M577,799h-9l-.5-2-.5,2h-9v-19c6.2-.5,13.1,1.1,19-1v20ZM574.5,796v1c.7-.3.7-.7,0-1Z"/>
  <path class="st2" d="M557,940v19c-5.3,0-10.7,0-16,0h-3c-.7-2,1.8-1.8,2-2.7.5-2.1.8-10,1-13,.1-2.2-.1-2.3-2-3.3,1,0,2,0,3,0,4.6-.2,9.8.9,14-1l1,1h0ZM556,941h-14l.4,15.1,13.5,1.9v-17h0Z"/>
  <path class="st0" d="M465,779c0,6.7-1,14.1-1,20-6.2-.5-13.1,1.1-19-1,0-1,0-2,0-3,2.3-.5,1.4,1.8,3.4,2.1,4.5.5,10-.5,14.6,0v-17h-18v-1h20Z"/>
  <path class="st0" d="M540,779v1h-58v-1h58Z"/>
  <path class="st2" d="M541,778c-1.6-4.6-1.3-11.6-1.1-16.5.1-1.9-.2-3.8,2.1-4.5l-1,21Z"/>
  <polygon class="st2" points="465 940 479 940.5 466 941 466 959 465 959 465 957 465 940"/>
  <polygon class="st1" points="568 799 567 799 567.5 797 568 799"/>
  <path class="st1" d="M793,415c.2,0,.6.8,1,1,0,7.6,0,15.4,0,23h-54l-.5-11-.5,12h54v19l-54,1h-1c0-3.3.8-19.1-1-20l-.5-1-.5,1c-6.3-.9-14.4.6-21,0v-23c4.7-.3,9.8.4,14.5,0,2.8-.3,6.4-1.9,8.5-2,14.4-.8,41.2-1.6,55,0h0Z"/>
  <path class="st1" d="M287,415c.3,0,.7,0,1,0,.6,0,1.5,1,2,1,.1,0,.9.9,2.4,1.1,5.1.6,11.3-.5,16.6,0v20.5c-5,3.8-13.5-.5-19,2.5h-1c-1-1.7-3.8-1-5.5-1-7.3,0-14.8-.3-22,0-1.2,0-3.7-.8-3.5,1h30c-.2,6,.3,12,0,18l-56,1c0-6.3,0-12.7,0-19,0-8.3,0-16.7,0-25,17.5,1.4,37.9-1.9,55,0ZM233,439v1h23v-1h-23Z"/>
  <path class="st1" d="M738,268c-.1-5.6,0-11.4,0-17h56c1.2,0,0,20.9,0,23l-1,22h-53l-1-19v-1c16.2-2.3,33.1-.3,49.5-1,1.2,0,3.7.8,3.5-1h-52v-6h-2Z"/>
  <path class="st1" d="M276,250c.5,0,2,.9,3.4,1,5.8.3,11.7-.2,17.5,0v24c-6.9-2-13.9-.1-21,0,0-5,0-10,0-15h-1v14h-42c-.2,1.8,2.3,1,3.5,1,12.7.5,26.7.3,39.5,0,0,6.6.3,13.5,0,20l-44,1v-45h1c1,1.7,3.8,1,5.5,1,6.5,0,14.3.8,20.5-1h3l14,1-4-1v-1c1.6-1.1,3,0,4,0h0Z"/>
  <path class="st1" d="M245,589c12.5-.4,25.1.5,37.5,0,1.2,0,3.7.8,3.5-1h-39v-20.5c.8-.8,3.7-2.5,4.5-2.5h35.5c.6,4.3-.6,9.4-.4,13.5.1,3.3,1.4,8.2,1.4,10.5.2,7-.2,14,0,21h-41.5c-2.8-5.6-1.4-14.4-1.5-21h0Z"/>
  <rect class="st2" x="738" y="230.9" width="55" height="19.1"/>
  <path class="st2" d="M738,397h55v18c-13.8-1.6-40.6-.8-55,0v-18Z"/>
  <path class="st1" d="M737,588c1,1,1,.9,2.4,1,10.7,1.2,23.6-1,34.6,0l1,9c0,4,0,8,0,12h-39v-21l-1.5-1h-18.5s0-21,0-21h18.5c3.4,3.7-.6,17.9,2.5,21h0Z"/>
  <path class="st1" d="M774,565h1c0,7.7,0,15.3,0,23h-38v-23h37Z"/>
  <path class="st2" d="M288,565l1,1c-1.6,7-1.6,16,0,23h-1c0-2.3-1.3-7.2-1.4-10.5-.2-4.1,1-9.2.4-13.5h-35.5c-.8,0-3.7,1.7-4.5,2.5v20.5h39c.2,1.8-2.3,1-3.5,1-12.5.5-25-.4-37.5,0-.1-12.2-.7-25.9,0-38l2.6-3.1,37.8.2c3.8,1.2-.2,13.9,2.6,16.9h0Z"/>
  <path class="st1" d="M738,275l-23,1v-25h22l1,23c0,.3,0,.7,0,1Z"/>
  <path class="st1" d="M290,566l19,2v20c-6.1.6-13.3-1.3-19,1h-1c-1.6-7-1.6-16,0-23,.3,0,.7,0,1,0Z"/>
  <path class="st2" d="M353,646c-.1-11.5.1-23,0-34.5-.1-10.5-.2-20.8,0-31.5v-4c0-.7,0-1.3,0-2,0-7,.8-15.3-1-22,0-2.3,0-4.7,0-7,1.7-1.9,1.7-7.1,0-9v-3c1.5-.1,1.5-2.9,0-3v-2l1-1c0-4.5-1-8.4-1-13,1.7-2.2,1.7-8,0-10,.1-4.8,1.5-9.1,1-14,0-.5-.5-.9-1-1-.1-1,0-2,0-3l1-1.5-1-.5c0-1,0-2,0-3,1.7-6.1,1.7-14.9,0-21v-12c1.6-.4,1.5-3.7,0-4,0-1.7,0-3.3,0-5,1.6-.4,1.5-3.7,0-4,0-1.3,0-2.7,0-4l1-.5-1-.5c0-.7,0-1.3,0-2,1.6-.4,1.5-3.7,0-4,0-2.3,0-4.7,0-7,0-.1,1-1.1,1-2.4.2-5.3-.2-10.8,0-16.1,0-.9-.4-3.6,1-2v246.1c.8,1.3-1,3.2-1,3.4Z"/>
  <path class="st2" d="M557,78v21h-92v-1h91v-19h-101c-.6,5.5.8,12.3,0,17.6-.3,2.2-1.8,3.4-2,5-.6,4.5.1,10.2,0,15,0,1.2.8,3.7-1,3.5v-20h-23c-.2,6.2.3,12.4,0,18.6,0,1.3-1,2.3-1,2.4v-22c8.3-.5,16.7.3,25,0v-21c34.6.1,69.3-.2,104,0Z"/>
  <path class="st4" d="M428,99v1l-1,20h-15l-1-19c5.5,0,11.7-1.7,17-2Z"/>
  <path class="st0" d="M231,250c0-6.6.7-13.5-1-20h46v20c-1,0-2.4-1.1-4,0h-41ZM232,231v17h43v-17h-43Z"/>
  <path class="st2" d="M739,460l54-1v-19h-54l.5-12,.5,11h54c0,7,0,14,0,21-18.3,0-36.7,0-55,0h0Z"/>
  <polygon class="st2" points="794 274 794 297 738 297 739 277 740 296 793 296 794 274"/>
  <path class="st2" d="M331,315c0-35.3,0-70.7,0-106v106Z"/>
  <path class="st2" d="M353,337h20v17h-1v-16h-18v57c-1.8.2-1-2.3-1-3.5-.1-3.4.2-6.8,0-10.1,0-1.3-1-2.3-1-2.4,0-1,0-2,0-3,1.7-5.8,1.7-14.3,0-20v-2l1-1.5-1-.5c0-5.3,1-9.8,1-15Z"/>
  <path class="st0" d="M288,396v19c-.3,0-.7,0-1,0v-18h-55c0,6,0,12,0,18l-1-1.5c.2-5.2-.2-10.4,0-15.5,0-.7,0-1.3,0-2h57Z"/>
  <path class="st2" d="M232,251v45l44-1c0,.7,0,1.3,0,2h-45c0-15.6.1-31.4,0-47h1v1h0Z"/>
  <path class="st2" d="M736,565c2.4-2.4.3-13.2,1-17h37v17h-37v23c-3.1-3.1.9-17.3-2.5-21h-18.5v21h18.5s1.5,1,1.5,1h-21v-23c4.3-.8,18.5,1.5,21-1Z"/>
  <path class="st2" d="M775,588c0,3.3,0,6.7,0,10l-1-9c-11-.9-23.9,1.2-34.6,0-1.4-.2-1.4,0-2.4-1h38Z"/>
  <path class="st2" d="M352,144c-6.6,0-13.4,0-20,0l-1,64c0-21.6,0-43.4,0-65l21,1h0Z"/>
  <path class="st0" d="M793,250h0v-19.1h-55c0,0,56-1.9,56-1.9-.6,6.7,1.3,14.6-1,21h0Z"/>
  <path class="st2" d="M232,440c0,6.3,0,12.7,0,19l56-1c0,.7,0,1.3,0,2h-57l1-20h0Z"/>
  <path class="st0" d="M738,397l56-1c0,6.6,0,13.4,0,20-.4-.2-.8-1-1-1v-18h-55Z"/>
  <path class="st0" d="M736,565v-18h39c0,6,0,12,0,18h-1v-17h-37c-.7,3.8,1.4,14.6-1,17Z"/>
  <path class="st2" d="M290,566c6.2.7,13.6-.5,20,0v23h-20c5.7-2.3,12.9-.4,19-1v-20l-19-2Z"/>
  <path class="st0" d="M245,548c1.2-2.3,37.6-.3,43-1v18c-2.9-3,1.2-15.6-2.6-16.9l-37.8-.2-2.6,3.1c0-.7-.1-1.4,0-2l1-.5-1-.5Z"/>
  <path class="st2" d="M738,268h2v6h52c.2,1.8-2.3,1-3.5,1-16.4.7-33.3-1.3-49.5,1l-1-1c0-.3,0-.7,0-1-.2-.9,0-4.5,0-6Z"/>
  <path class="st2" d="M290,416h20v24h-20c5.5-3,14,1.3,19-2.5v-20.5c-5.3-.5-11.5.6-16.6,0-1.5-.2-2.3-1-2.4-1.1Z"/>
  <path class="st2" d="M410,122c.3,3.5-.8,1.2-2.6,1.1-11.1-.4-22.3.2-33.4,0l-1,39h-20v-17h1v16h18c.2-6-.3-12,0-18,0-.1,1-1.1,1-2.4.3-6.2-.3-12.4,0-18.6h37Z"/>
  <path class="st2" d="M428,122c-.2,5.8.2,11.7,0,17.5,0,1.2.8,3.7-1,3.5v-20l-16-1h17Z"/>
  <path class="st2" d="M289,440h-31c-.2-1.8,2.3-1,3.5-1,7.2-.3,14.8,0,22,0,1.7,0,4.5-.6,5.5,1Z"/>
  <path class="st4" d="M353,574c-1.9-6.7-1-14.9-1-22,1.8,6.7,1.1,15,1,22Z"/>
  <path class="st4" d="M352,481c0-7,0-14,0-21,1.7,6.1,1.7,14.9,0,21Z"/>
  <path class="st4" d="M352,376c-.2-6.6,0-13.4,0-20,1.7,5.7,1.7,14.2,0,20Z"/>
  <rect class="st4" x="338.5" y="329.5" width="1" height="12" transform="translate(3.4 674.4) rotate(-90)"/>
  <path class="st4" d="M352,514c0-3.3-.1-6.7,0-10,1.7,2,1.7,7.8,0,10Z"/>
  <path class="st4" d="M352,545c0-3,0-6,0-9,1.7,1.9,1.7,7.1,0,9Z"/>
  <path class="st4" d="M352,448v-4c1.5.3,1.6,3.6,0,4Z"/>
  <path class="st4" d="M353,580c0-1.1,0-2.9,0-4v4Z"/>
  <path class="st4" d="M352,428c0-1.3,0-2.7,0-4,1.5.3,1.6,3.6,0,4Z"/>
  <path class="st4" d="M352,439c0-1.3,0-2.7,0-4,1.5.3,1.6,3.6,0,4Z"/>
  <path class="st4" d="M352,533v-3c1.5.1,1.5,2.9,0,3Z"/>
  <path class="st4" d="M352,486c0-.7,0-1.3,0-2l1,.5-1,1.5Z"/>
  <path class="st1" d="M231,398l-1-.5,1-1.5c0,.7,0,1.3,0,2Z"/>
  <path class="st4" d="M352,354v-2l1,.5-1,1.5Z"/>
  <path class="st4" d="M352,431v-1l1,.5-1,.5Z"/>
  <path class="st2" d="M737,440c-.3,0-.7,0-1,0l.5-1,.5,1Z"/>
  <path class="st4" d="M352,528c0-.7,1-.9,1-1l-1,1Z"/>
  <path class="st2" d="M245,549c0-.4-.1-.8,0-1l1,.5-1,.5Z"/>
  <path class="st4" d="M353,490c-.5-.1-.9-.5-1-1,.5.1,1,.5,1,1Z"/>
  <polygon class="st1" points="288 397 288 396 289 396.5 288 397"/>
  <path class="st3" d="M577,609v-43h18v-21h40v21h19v43h-19v21c-1-.3-2.2,1-2.5,1h-34l-1.5,3.5c-.9,39,1.3,78.2,0,117.1,0,1.9,1,4-2,3.5v-96c0-3.3,0-6.7,0-10v-1c0-5.3,0-10.7,0-16v-1c0-7.3,0-14.7,0-22h-18ZM597,589c0,5.3-1.3,11.8-1,18,0,.7,0,1.3,0,2,12-.4,24.1.6,36,0,.7,0,1.3,0,2,0,0-6.7,0-13.3,0-20,0-7.7,0-15.3,0-23-.6,0-1.4-.1-2,0h-36c0,6.8,0,13.7,0,20.6,0,1.3,1,2.3,1,2.4h0Z"/>
  <path class="st3" d="M577,373l1.5,1c5.2-.5,11.5.7,16.5,0l-17,1v40h17v-19h40v19h20v-59h1v39l9,1h-9c-.7.7.5,16.5,0,19.6-.2,1.9-1.9,1-2.2,2.9-1.5,12.3,1.3,27.9,0,40.6h-19c.9,13.1-2.5,26.2,0,39h-37c-.2-1.8,2.3-1,3.5-1,4.3-.2,8.7,0,13,0,1.9,0,3.9-1,6-1.1,4.3,0,8.2,1.5,12.5,1.1v-8h-16v-1h16v-10h-37l-1-19h-18c.1-26.1,1.9-57,0-82.5,0-.8.4-2.7-1-2.5h-17c3-2.4,12.8-.3,17-1l1-76c0,25.3,0,50.7,0,76h0ZM596,416c-1.3,6.5,1,17,0,24-.2,6.3.1,12.7,0,19,5.4-.3,11.2.4,16.6,0,1.9-.1,3.7.2,4.5-2.1h16v-17h-36v17h21v2c4.5-.3,9.5.4,14,0,.9,0,1.9.3,2-1,0-6,0-12,0-18,0-8,0-16,0-24-.7-1.6-4.3-1.6-5,0-10.6-.5-21.4.4-32,0l-.5-1c-.6.2-.4.6-.5,1h0Z"/>
  <path class="st3" d="M395,230c-1.9-.9-1.9-1.4-2.1-3.4-.5-5.9.5-12.6,0-18.6h35c1.1,0,0,19.9,0,22,6.3,0,12.7,0,19,0v46h18v98h18v115h-2v-30l-13-.5,13-.5v-62l-13-.5,13-.5v-20h-14c-1,39.1,1.3,78.5,0,117.5,0,1.9,1,4-2,3.5-1.9-39.4,1.4-80.4,0-120l-1.5-1c-4.8.2-9.7-.2-14.5,0-.7,0-1.3,0-2,0,0,6.6,0,13.4,0,20v1c0,9.3,0,18.7,0,28,0,10.6,0,21.4,0,32v23c0,1.7,0,3.3,0,5-.1,3.6-.4,8.5,0,12,0,.6,0,1.3,0,2l-1-39c-6,0-12,0-18,0v-44c-11.7.5-23.2.9-35,1v43c6,0,12,0,18,0,5.6,0,11.4,0,17,0v19h-35v-19c-3.9,0-18.1.9-20-1v-42c6.6,0,13.4,0,20,0v-20h35v82h-35v-82h35v19c6-.2,12,.2,18,0v-40c-7-.9-13.9,3.1-20-1.7l1.1-18.3-3-.5c0-1,1.8.4,2.1-1.9,1.4-12-1.8-25.7.9-37.6h-27v-2h26v-14h2c.1,25-.1,50,0,75h18c0-19.6,0-39.4,0-59,0-12.2,0-24.4,0-36.5l-1-1.5h-16l-1-1c0,7.3,0,14.7,0,22l-34-1v18l-1.6-5.7c1.1-11,.6-22.2.6-33.3-6.6,0-13.4,0-20,0v-46c6.6,0,13.4,0,20,0v46c11.6,0,23.4,0,35,0-.1-9,.4-18.1,0-27v-19c-11,0-22,0-33,0h0ZM463,277h-16v77h16v-15.5c0-.3,1.3-.8,1-1.5h-15v-1h14v-19.5c0-.2,1.5-1.1,1-1.5l-10-.5,9-.5v-17l-6-.5,6-.5v-19h0ZM463,355h-16v18h17l-1-18Z"/>
  <path class="st2" d="M577,459c0,12.6,0,25.4,0,38h-17v-122l16-1c1.4-.2,1,1.6,1,2.5,1.9,25.6,0,56.4,0,82.5Z"/>
  <path class="st2" d="M429,757v-125h15c.8,33.1-1.1,66.4,0,99.5,0,1.9-1,4,2,3.5v21c-.7,0-1.3,0-2,0-5.1.2-9.9,1.2-15,1Z"/>
  <path class="st3" d="M595,229c-.2-7,.1-14,0-21h40v21l2,1c4.5,1,12-.7,17,0v85h-1v-18l-5-.5,5-.5v-20c-6,0-12,0-18,0,0,7,0,14,0,21h-38l-1,77-1-2c.1-1.3,0-2.7,0-4,1.7-6.5,1.7-15.5,0-22,0-6.3,0-12.7,0-19v-1c0-2.3,0-4.7,0-7,1.7-1.3,1.7-5.7,0-7v-5c0-3.3.2-6.7,0-10,0-.3,0-.7,0-1v-20h-18c0-15.3,0-30.7,0-46,6,0,12,0,18,0,0,.6.9,2,1,3.4.2,5.5-.2,11.1,0,16.6-.3,8.6.2,17.4,0,26l1-1c12.7,0,25.3.9,38,1,0-8.9,0-17.4-1-26v-20c-12,0-24,0-36,0l-3-1h0Z"/>
  <path class="st3" d="M393,566c0-7,0-14,0-21h35v20l2,1c2.7.6,16.4-.6,17,0-.2,12.8.2,25.7,0,38.6,0,2-1,4-1,5.5h-17l-1-1c0-13.4.6-27.7,0-41,0-.7,0-1.3,0-2-11.6,0-23.4-.1-35,0,0,7.3,0,14.7,0,22s0,14,0,21c11.6-.2,23.4.2,35,0,0,7.3,0,14.7,0,22h-35c0-7.3,0-14.7,0-22-5.1.1-14.2,2.6-19,.5l-1-1.5v-42c6.6,0,13.4,0,20,0h0Z"/>
  <path class="st1" d="M446,610c-.1,7,0,14,0,21h-17v-21h17Z"/>
  <path class="st1" d="M577,610h17c0,6.7,0,13.3,0,20-4.6,2-10.1.6-15,1-.3,0-.7,0-1,0s-.7,0-1,0v-21Z"/>
  <path class="st1" d="M577,277h17c.3,5.5-.3,11.1,0,16.6,0,1.3,1,2.3,1,2.4,0,.3,0,.7,0,1h-18c0-6.6,0-13.4,0-20Z"/>
  <polygon class="st3" points="501 498 501 755 500 755 500 736 493 735.5 500 735 500 499 485 499 485 498 501 498"/>
  <path class="st0" d="M576,374l-16,1v122h17c-.9,2.9-13.7,2.1-16.6,2-1.3,0-2.3-1-2.4-1v-25l1-.5-1-.5v-4c1.5-.1,1.5-2.9,0-3v-9c1.7-1.9,1.7-7.1,0-9v-6l1-.5-1-.5v-13c1.5-.1,1.5-2.9,0-3v-26l1-.5-1-.5v-2l1-.5-1-.5v-2c1.7-1.3,1.7-5.7,0-7,0-3.3,0-6.7,0-10,.4-.3.6-.7,1-1h17Z"/>
  <path class="st0" d="M429,277v38h17c0,19.6,0,39.4,0,59h-18c-.1-25,.1-50,0-75v-1c0-7.3,0-14.7,0-22l1,1h0ZM445,316h-16v57h16v-57Z"/>
  <path class="st3" d="M446,755v-20c0-31.8-.3-63.1,0-95,0-2.7,0-5.3,0-8v123Z"/>
  <path class="st0" d="M395,230c11,0,22,0,33,0v19c0-.1-1-1.1-1-2.4-.3-5.2.3-10.4,0-15.6h-33v17c4.5.1,9-.1,13.5,0,1.9,0,4-1,3.5,2-5.6,0-11.4,0-17,0h-1v-20h2Z"/>
  <polygon class="st3" points="675 180 691 180 691 181 675 181 675 195 691 195 691 196 674 196 673.6 162.5 675 152 675 180"/>
  <rect class="st3" x="655" y="499" width="1" height="66"/>
  <polygon class="st3" points="675 249 693 249 693 250 675 250 675 266 674 266 674 239 675 239 675 249"/>
  <rect class="st2" x="372" y="355" width="1" height="40"/>
  <rect class="st3" x="655" y="460" width="1" height="38"/>
  <path class="st3" d="M674,198c1.8-.2.9,2.2,1,3.5,0,2.2,0,4.4,0,6.5h11c.2,1.8-2.3.9-3.5,1-2.5.1-5,0-7.5,0v15h-1v-26h0Z"/>
  <path class="st2" d="M577,276h18v20c0-.1-1-1.1-1-2.4-.3-5.5.3-11.1,0-16.6h-17v-1h0Z"/>
  <path class="st3" d="M393,672v8c-3.7.8-1.4-4.9-2-7h-17v-1h19Z"/>
  <rect class="st3" x="674" y="275" width="1" height="29"/>
  <path class="st2" d="M464,98c-.9,2.3-6,.4-8,1,.9-2.3,6-.4,8-1Z"/>
  <rect class="st3" x="674" y="231" width="1" height="6"/>
  <path class="st1" d="M598,230h-3c0-.3,0-.7,0-1l3,1Z"/>
  <path class="st1" d="M637,230l-2-1c1-.4,1.9,1,2,1Z"/>
  <path class="st1" d="M596,374c-.3,0-.7,0-1,0,0-.7,0-1.4,0-2l1,2Z"/>
  <path class="st1" d="M430,566l-2-1c1-.4,1.9,1,2,1Z"/>
  <rect class="st3" x="391" y="682" width="2" height="1"/>
  <path class="st2" d="M558,375v-1h1c-.4.3-.6.7-1,1Z"/>
  <path class="st3" d="M674.5,270c.7.3.7.7,0,1v-1Z"/>
  <path class="st3" d="M674.5,267c.7.3.7.7,0,1v-1Z"/>
  <path class="st2" d="M445,780h18v17c-4.6-.5-10.1.6-14.6,0-2-.2-1.1-2.6-3.4-2.1-.1-5,0-10,0-15Z"/>
  <path class="st2" d="M428,781c0,5.3,0,10.7,0,16h-16v-17l16,1Z"/>
  <path class="st2" d="M446,640c-2-1.7-.7-5.2-1-7.5l1-.5c0,2.7,0,5.3,0,8Z"/>
  <path class="st0" d="M579,631c-.4,12.5.5,25.1,0,37.5,0,1.9,1,4-2,3.5,0-7.3-.1-14.7,0-22l1-.5-1-.5c0-3.6-.3-7.5,0-11,.1-1.4,2-4.5,1-7,.3,0,.7,0,1,0Z"/>
  <path class="st4" d="M595,649v-1,1Z"/>
  <path class="st4" d="M595,632v-1,1Z"/>
  <path class="st4" d="M595,660v-1,1Z"/>
  <path class="st2" d="M558,456v-9c1.7,1.9,1.7,7.1,0,9Z"/>
  <path class="st2" d="M540,632v-7c1.7,1.3,1.7,5.7,0,7Z"/>
  <path class="st2" d="M558,392c0-2.3,0-4.7,0-7,1.7,1.3,1.7,5.7,0,7Z"/>
  <path class="st2" d="M540,646v-4c1.5.3,1.6,3.6,0,4Z"/>
  <path class="st2" d="M558,468v-3c1.5.1,1.5,2.9,0,3Z"/>
  <path class="st2" d="M558,427v-3c1.5.1,1.5,2.9,0,3Z"/>
  <path class="st2" d="M540,529v-2l1,.5-1,1.5Z"/>
  <path class="st2" d="M540,743c0-.7,0-1.3,0-2l1,.5-1,1.5Z"/>
  <polygon class="st2" points="540 697 540 696 541 696.5 540 697"/>
  <path class="st2" d="M540,693v-1l1,.5-1,.5Z"/>
  <path class="st2" d="M540,721v-1l1,.5-1,.5Z"/>
  <path class="st2" d="M540,729v-1l1,.5-1,.5Z"/>
  <path class="st2" d="M540,737v-1l1,.5-1,.5Z"/>
  <polygon class="st2" points="540 689 540 688 541 688.5 540 689"/>
  <path class="st2" d="M540,746c0-.3,0-.7,0-1l1,.5-1,.5Z"/>
  <polygon class="st2" points="541 756 540 755.5 541 755 541 756"/>
  <polygon class="st2" points="558 441 558 440 559 440.5 558 441"/>
  <polygon class="st2" points="558 473 558 472 559 472.5 558 473"/>
  <path class="st2" d="M540,532v-1l1,.5-1,.5Z"/>
  <path class="st2" d="M558,398v-1l1,.5-1,.5Z"/>
  <path class="st2" d="M558,395v-1l1,.5-1,.5Z"/>
  <path class="st2" d="M577,638v-7c.3,0,.7,0,1,0,1,2.5-.9,5.6-1,7Z"/>
  <path class="st2" d="M577,650v-1l1,.5-1,.5Z"/>
  <path class="st2" d="M465,376l-1,121h-15v-38c-1.8-.2-1,2.3-1,3.5-.2,4.7.2,9.4,0,14.1,0,1.3-1,2.3-1,2.4v-21c3,.6,1.9-1.5,2-3.5.8-20.8.8-42.4.9-63.1,0-5.4-1.5-10.9-1-16.5,4.8-.2,9.7.2,14.5,0l1.5,1h0Z"/>
  <path class="st2" d="M447,496c-.4-3.5-.1-8.4,0-12,1.7,2.9,1.7,9.3,0,12Z"/>
  <path class="st1" d="M574.5,796c.7.3.7.7,0,1v-1Z"/>
  <polygon class="st1" points="556 941 556 958 542.4 956.1 542 941 556 941"/>
  <path class="st2" d="M232,415c0-6,0-12,0-18h55v18c-17.1-1.9-37.5,1.4-55,0h0Z"/>
  <rect class="st2" x="233" y="439" width="23" height="1"/>
  <path class="st2" d="M276,275c-12.8.3-26.8.5-39.5,0-1.2,0-3.7.8-3.5-1h42v-14h1c0,5,0,10,0,15Z"/>
  <path class="st3" d="M272,250v1h-13c-8.6,0-17.4,0-26,0h-1v-1h40Z"/>
  <path class="st2" d="M259,251c-6.2,1.8-14,1.1-20.5,1-1.7,0-4.4.6-5.5-1,8.6,0,17.4,0,26,0Z"/>
  <polygon class="st2" points="272 251 276 252 262 251 272 251"/>
  <rect class="st3" x="327.5" y="324.5" width="10" height="1" transform="translate(7.4 657.4) rotate(-90)"/>
  <rect class="st2" x="232" y="231" width="43" height="17"/>
  <path class="st2" d="M632,566c.6-.1,1.3,0,2,0,0,7.7,0,15.3,0,23-5-1.7-11.6-1.2-17-1v-9l-1,8h-19v-20c11.6-.6,23.8,1.2,35-1h0Z"/>
  <path class="st1" d="M617,588c5.4-.2,12-.7,17,1,0,6.7,0,13.3,0,20-.7,0-1.3,0-2,0l-17.5-2h-18.5c-.3-6.2,1-12.7,1-18,6.7.4,13.3-.8,20-1h0Z"/>
  <path class="st0" d="M632,566c-11.2,2.2-23.4.4-35,1v20h19l1-8v9c-6.7.2-13.3,1.4-20,1,0-.1-1-1.2-1-2.4,0-6.9,0-13.7,0-20.6h36Z"/>
  <path class="st2" d="M632,609c-11.9.6-24.1-.4-36,0,0-.7,0-1.3,0-2h18.5l17.5,2h0Z"/>
  <polygon class="st1" points="617 457 597 457 597 440 633 440 633 457 633 457 618 457 597 457 597 440 633 440 633 457 617 457"/>
  <path class="st0" d="M595,307v5c0,2.3,0,4.7,0,7s0,4.7,0,7v1c0,6.3,0,12.7,0,19,0,7.3.2,14.7,0,22,0,1.3.1,2.7,0,4,0,.6,0,1.3,0,2-5,.7-11.3-.5-16.5,0l-1.5-1h17v-76h1c.2,3.3,0,6.7,0,10Z"/>
  <path class="st0" d="M629,416c1.7,0,3.3,0,5,0,0,8,0,16,0,24-.3-.3-1-.7-1-1,0-.6,0-1.4,0-2,0-2,0-4,0-6,0-1.3,0-2.7,0-4v-1c0-3,0-6,0-9-4.3,0-8.7,0-13,0h-23c-.2,6.8.3,13.7,0,20.6,0,1.3-1,2.3-1,2.4,1-7-1.3-17.5,0-24h1c10.6.4,21.4-.5,32,0h0Z"/>
  <path class="st2" d="M617,417l.5,9,.5-9h2l12,1,1,8v1l-16,.5c0,2.1,16.1-2.4,16,3.5,0,2,0,4,0,6l-1,.5,1,1.5c0,.3.7.7,1,1,0,6,0,12,0,18l-2,1c-4.5.4-9.5-.3-14,0v-2h15v-17h-36v17h20c-.7,2.3-2.6,1.9-4.5,2.1-5.4.4-11.1-.4-16.6,0,.2-6.3-.2-12.7,0-19,0-.1,1-1.1,1-2.4.3-6.8-.3-13.8,0-20.6h20ZM617,430v9h1v-9h-1Z"/>
  <path class="st1" d="M634,416c-1.7,0-3.3,0-5,0,.7-1.6,4.3-1.6,5,0Z"/>
  <path class="st1" d="M634,458c-.1,1.3-1.1.9-2,1l2-1Z"/>
  <path class="st1" d="M597,416h-1c0-.4-.1-.8.5-1l.5,1Z"/>
  <path class="st4" d="M463,277v19l-6,.5,6,.5v17l-9,.5,10,.5c.5.4-1,1.3-1,1.5v19.5h-14v1h15c.3.7-1,1.2-1,1.5v15.5h-16v-77h16Z"/>
  <path class="st2" d="M411,250c.6-3-1.5-1.9-3.5-2-4.5-.1-9,.1-13.5,0v-17h33c.2,5.2-.3,10.4,0,15.6,0,1.3,1,2.3,1,2.4.4,8.9-.1,18,0,27-11.6,0-23.4,0-35,0v-26h1v24h33v-24c-5.3,0-10.7,0-16,0h0Z"/>
  <rect class="st1" x="429" y="277" width="16" height="38"/>
  <path class="st1" d="M427,440h1v19c-5.6,0-11.4,0-17,0,0-6.3,0-12.7,0-19,5.3-.2,10.7.2,16,0Z"/>
  <polygon class="st4" points="463 355 464 373 447 373 447 355 463 355"/>
  <path class="st0" d="M449,375c-.5,5.5,1,11,1,16.5-.2,20.7-.1,42.3-.9,63.1,0,1.9,1,4-2,3.5v-2c1.7-1,1-3.8,1-5.5,0-7,0-14,0-21,0-1.7.6-4.5-1-5.5,0-9.3,0-18.7,0-28l1-.5-1-.5c0-6.6,0-13.4,0-20,.7,0,1.3,0,2,0h0Z"/>
  <path class="st0" d="M428,415v25h-1v-23h-33v22h16c0-2.5-.1-5,0-7.5,0-1.2-.8-3.7,1-3.5,0,4,0,8,0,12-5.8.2-11.9,1.8-18,1v-25c11.8-.1,23.3-.5,35-1h0Z"/>
  <path class="st2" d="M446,315h-1v-38l1,1.5c0,12.2,0,24.4,0,36.5Z"/>
  <path class="st2" d="M447,456c0-10.6,0-21.4,0-32,1.7,1,1,3.8,1,5.5,0,7,0,14,0,21,0,1.7.6,4.5-1,5.5h0Z"/>
  <path class="st2" d="M447,396v-1l1,.5-1,.5Z"/>
  <path class="st1" d="M633,242c.2,3.3.7,5.5,1,8,1,8.6,1,17.1,1,26-12.7-.1-25.3-1.1-38-1v-25h16.5l18.5-2h-15v-3l1,2h14v-4c-2.5,0-5,.1-7.5,0-1.2,0-3.7.8-3.5-1h12Z"/>
  <path class="st0" d="M598,230c12,0,24,0,36,0v20c-.3-2.5-.8-4.7-1-8,0-.7,0-1.3,0-2,0-3,0-6,0-9-5.3,0-10.7,0-16,0-6.7,0-13.3,0-20,0-.2,5.5.3,11.1,0,16.6,0,1.3-1,2.3-1,2.4-.2-5.5.3-11.1,0-16.6,0-1.5-1-2.9-1-3.4h3Z"/>
  <path class="st2" d="M617,231c2.1,2.4,14.1,0,15,1l1,8c0,.7,0,1.3,0,2h-12c-.2,1.8,2.3.9,3.5,1,2.5.1,5,0,7.5,0v4h-14l-1-2v3h15l-18.5,2h-16.5v25l-1,1c.2-8.6-.3-17.4,0-26,0-.1,1-1.1,1-2.4.3-5.5-.3-11.1,0-16.6,6.7,0,13.3,0,20,0ZM617.5,233v1c.7-.3.7-.7,0-1ZM617.5,236v1c.7-.3.7-.7,0-1ZM619,239h-2v1h2v-1ZM630,239c-2.2,0-4.3-.1-6.5,0-1.2,0-3.7-.8-3.5,1,2.2,0,4.3.1,6.5,0,1.2,0,3.7.8,3.5-1ZM617.5,242v1c.7-.3.7-.7,0-1Z"/>
  <path class="st1" d="M595,368c.2-7.3,0-14.7,0-22,1.7,6.5,1.7,15.5,0,22Z"/>
  <path class="st1" d="M595,319c0-2.3,0-4.7,0-7,1.7,1.3,1.7,5.7,0,7Z"/>
  <path class="st1" d="M595,327v-1,1Z"/>
  <path class="st2" d="M428,568c.6,13.3,0,27.6,0,41-11.6.2-23.4-.2-35,0,0-7,0-14,0-21h1c0,6.3,0,12.7,0,19h16l1-8v9h14.5l1.5-1.5v-18.5h-14l-.5-8-2.4,7.6-16.1.4c0-7,0-14,0-21l34,1Z"/>
  <path class="st0" d="M393,566c11.6-.1,23.4,0,35,0,0,.7,0,1.3,0,2l-34-1c0,7,0,14,0,21h-1c0-7.3,0-14.7,0-22h0Z"/>
  <path class="st2" d="M411,440c0-4,0-8,0-12-1.8-.2-.9,2.3-1,3.5-.1,2.5,0,5,0,7.5h-16v-22h33v23c-5.3.2-10.7-.2-16,0,0,6.3,0,12.7,0,19-6,0-12,0-18,0v-18c6.1.8,12.2-.8,18-1h0ZM410,418v9h1v-9h-1Z"/>
  <path class="st2" d="M594,297v76h-17c0-25.3,0-50.7,0-76h17Z"/>
  <rect class="st2" x="429" y="316" width="16" height="57"/>
  <path class="st1" d="M411,250c5.3,0,10.7,0,16,0v24h-33v-24c5.6,0,11.4,0,17,0Z"/>
  <path class="st1" d="M620,417c4.3,0,8.7,0,13,0,0,3,0,6,0,9l-1-8-12-1h0Z"/>
  <path class="st1" d="M633,427c0,1.3,0,2.7,0,4,0-5.9-16-1.4-16-3.5l16-.5Z"/>
  <path class="st1" d="M618,417l-.5,9-.5-9h1Z"/>
  <path class="st1" d="M633,439l-1-1.5,1-.5c0,.6,0,1.4,0,2Z"/>
  <path class="st1" d="M617,231c5.3,0,10.7,0,16,0,0,3,0,6,0,9l-1-8c-.9-.9-12.9,1.4-15-1h0Z"/>
  <path class="st1" d="M394,588l16.1-.4,2.4-7.6.5,8h14v18.5l-1.5,1.5h-14.5v-9l-1,8h-16c0-6.3,0-12.7,0-19Z"/>
  <rect class="st1" x="613" y="434" width="9" height="1" transform="translate(182.8 1051.8) rotate(-90)"/>
  <rect class="st0" x="406" y="422" width="9" height="1" transform="translate(-12.1 832.8) rotate(-90)"/>
  <path class="st1" d="M630,239c.2,1.8-2.3.9-3.5,1-2.2.1-4.3,0-6.5,0-.2-1.8,2.3-.9,3.5-1,2.2-.1,4.3,0,6.5,0Z"/>
  <rect class="st1" x="617" y="239" width="2" height="1"/>
  <path class="st1" d="M617.5,236c.7.3.7.7,0,1v-1Z"/>
  <path class="st1" d="M617.5,242c.7.3.7.7,0,1v-1Z"/>
  <path class="st1" d="M617.5,233c.7.3.7.7,0,1v-1Z"/>
</svg>