<svg xmlns="http://www.w3.org/2000/svg" viewBox="0 0 64 64" role="img" aria-label="justimate guitar icon">
  <defs>
    <linearGradient id="grad" x1="12" y1="6" x2="52" y2="58" gradientUnits="userSpaceOnUse">
      <stop offset="0" stop-color="#1e3a8a" />
      <stop offset="1" stop-color="#2563eb" />
    </linearGradient>
    <linearGradient id="strings" x1="8" y1="18" x2="24" y2="54" gradientUnits="userSpaceOnUse">
      <stop offset="0" stop-color="#f1f5f9" stop-opacity="0.9" />
      <stop offset="1" stop-color="#cbd5f5" stop-opacity="0.7" />
    </linearGradient>
  </defs>
  <path d="M50.5 6.2c2.1 2.1 1.7 6.3-1.1 9.1L33 31.8c-0.8 0.8-1 2-0.5 3l3 6.4c0.7 1.6 0 3.6-1.6 4.4l-6.3 3.2c-1 0.6-2.3 0.4-3.2-0.5L10.3 32.9C4.7 27.3 6.7 15.2 16.4 8.9 26.1 2.5 42.5 1.9 50.5 6.2Z" fill="url(#grad)" />
  <path d="M43.3 9.8c-6.2-2.8-17.8-0.4-24.3 4.1-6.5 4.6-8.5 12.2-4.2 16.6l12.2 12.2 4.4-2.3-2.4-5.2c-1.4-3.2-0.7-7 1.8-9.5L43.3 9.8Z" fill="rgba(15,23,42,0.18)" />
  <path d="M46.4 17.5c1.1 1.1 1.1 3 0 4.1l-9.3 9.3c-1.1 1.1-3 1.1-4.1 0s-1.1-3 0-4.1l9.3-9.3c1.1-1.1 3-1.1 4.1 0Z" fill="url(#strings)" />
  <circle cx="49.2" cy="10.4" r="3.4" fill="#faffff" fill-opacity="0.9" />
  <circle cx="51.3" cy="8.2" r="1.6" fill="#0f172a" fill-opacity="0.6" />
</svg>
