<?xml version="1.0" encoding="UTF-8"?>
<svg id="Layer_1" data-name="Layer 1" xmlns="http://www.w3.org/2000/svg" viewBox="0 0 1024 1024">
  <defs>
    <style>
      .cls-1 {
        fill: #fefefe;
      }

      .cls-2 {
        fill: #766e69;
      }

      .cls-3 {
        fill: #d4b896;
      }

      .cls-4 {
        fill: #2a2529;
      }

      .cls-5 {
        fill: #a45b30;
      }
    </style>
  </defs>
  <path class="cls-1" d="M5.02,0c.66,1.58,4.34,1.58,5,0h423.99c.66,1.58,4.34,1.58,5,0h6c2.87,1.7,9.33,1.67,12,0h106c.66,1.58,4.34,1.58,5,0h29c1,1.21,2,1.21,3,0h26c1.23,1.37,2.73,1.4,4,0h10c7.16,1.67,16.84,1.67,24,0h3c1.86,1.68,7.14,1.68,9,0h12c1,1.21,2,1.21,3,0h37c2.54,1.71,8.66,1.66,11,0h4c2.54,1.71,8.66,1.66,11,0h258.99l10.02,1.58-.02,1022.42h-386.99v-304h20v-27h18c.02-6.98-.03-14.02,0-21,7.32.05,14.68-.03,22,0v-62h19v22h61v-22h24v-64h-24v-20l-61,1v38h-19v-124h19v19c7.65.02,15.35-.03,23,0,.07,7.32-.05,14.68,0,22h57v-22h23v-65h-23v-21h-57v21h-23v20h-19v-79h20v-38h22v19h57v-19h23v-69h-23v-21h-57v21h-22v-108h-60v-22h-47.5c-2.47-1.61-.51-3.91-.45-6.46.11-5.17-.18-10.38-.05-15.54h-31c-.37-1.08,1-2.19,1-2.5v-18.5h-125v21h-37v22h-43v20.5l-1.5,1.5h-60.5v42h-21v45h21v41h-14v-20h-20v-21h-47v21h-22v69h22v19h47v-19h21l-1-22h14v79h19v60h-18v-20h-22v-21h-60v21h-22v66c1.08.37,2.19-1,2.5-1h19.5v22h60v-22c7.45-1.02,14.8,2.63,22-.04-1.15-3.24.09-6.08.03-9.43-.03-1.46-2.59-9.53.47-9.53h17.5v124h-18v-19h-22v-20h-44.5l-1.5,1.5v18.5h-21v64h21v22h46v-22h22v-20h18v82c7.32.03,14.68-.05,22,0,.04,6.98-.03,14.02,0,21h20v27h18v304H1.02L.02,605v-263c1.7-3.56,1.67-10.65,0-14V45C1.7,38.2,1.7,28.8.02,22c.05-1.65-.07-3.35,0-5,0-.13.96-1.13,1.04-2.42C1.33,10.18-.73,2.53,3.02,0h2Z"/>
  <path class="cls-4" d="M352.02,672c-7.32-.05-14.68.03-22,0v-82h-18v20h-22v22h-46v-22h-21v-64h21v-18.5l1.5-1.5h44.5v20h22v19h18v-124h-17.5c-3.06,0-.5,8.07-.47,9.53.07,3.35-1.18,6.19-.03,9.43-7.21,2.67-14.55-.98-22,.04v22h-60v-22h-19.5c-.31,0-1.42,1.37-2.5,1v-66h22v-21h60v21h22v20h18v-60h-19v-79h-14l1,22h-21v19h-47v-19h-22v-69h22v-21h47v21h20v20h14v-41h-21v-45h21v-42h60.5l1.5-1.5v-20.5h43v-22h37v-21h125v18.5c0,.31-1.37,1.42-1,2.5h31c-.13,5.16.16,10.37.05,15.54-.06,2.54-2.02,4.85.45,6.46h47.5v22h60v108h22v-21h57v21h23v69h-23v19h-57v-19h-22v38h-20v79h19v-20h23v-21h57v21h23v65h-23v22h-57c-.05-7.32.07-14.68,0-22,.33,0,.67,0,1,0,18.32.07,36.69-.05,55,0,.02-6.99-.04-14.02,0-21.01.04-7.65.04-15.35,0-23-.03-6.65.02-13.35,0-20.01l-56,1.01v18c-2.08.12-5.74,1.73-8.52,1.98-4.67.43-9.76-.27-14.48.02v23c6.56.65,14.66-.89,21,0,.33.05.67-.03,1,0,1.78.88.97,16.68,1,20-7.65-.03-15.35.02-23,0v-19h-19v124h19v-38l61-1v20h24v64h-24v22h-61v-22h-19v62c-7.32-.03-14.68.05-22,0-.03,6.98.02,14.02,0,21h-18v27h-20v304h-41l.09-52.57-2.1-1.93c3.38-.64,2.73-7.3.51-9.5h-14.5v-1h37v-19h-22c.73-1.5,1.02-2.74,1.06-4.44,1.12-45.05.17-91.41-.06-136.56h21v-20h-21c-.03-7.29-.96-15.04-1-22,0-.33,0-.67,0-1h23v-36h17v-26h-16v25h-1.99c-1.07-2.4.99-6.16.99-7.5v-18.5h38v-47h1v26c5.99.03,12.01-.04,18,0,.51-105.64-.38-211.35,0-317h-19v-19h18v1h-17v17h18v-48l1.01,8c2.39-1.85,4.47-.12,6.49-.21,2.28-.1,10.13-2.95,9.5,1.21h-16v21h19v-193h-39v-20l-48-1v-23h-32l2-1v-20c-6.65-.03-13.35.03-20,0-34.65-.18-69.35.14-104,0v21c-8.28.35-16.74-.48-25,0-5.32.31-11.52,1.92-16.99,2.01l.99,18.99h15l1-20v21c-.01.33.01.67,0,1h-17c-.33,0-.67,0-1,0h-37c-.23,6.16.32,12.41.05,18.58-.06,1.29-1.03,2.28-1.04,2.42-6.18,1.83-13.48.94-20,1l-21-1.01c-.01,21.65.03,43.35,0,65.01,0,.33,0,.67,0,1-.05,35.32-.06,70.68,0,106,.02,11.73-.49,23.82,0,35.51.05,1.23-.76,3.71,1,3.49v-20.5l6.48-3.51c1.66,1.29.77,3.75,3.52,3.01l.06-2.89,7.94-1.1,1.01,7v-20h-19v-1h20c.1,6.51-.13,13.06-.04,19.58.02,1.29,1.04,2.29,1.04,2.42.03,5.17-1.05,9.73-1,15,0,.67,0,1.33,0,2s0,1.33,0,2c.07,6.64-.24,13.37,0,20,.04,1-.04,2,0,3v38c-.09,2.32.06,4.67,0,7-.04,1.33.03,2.67,0,4-.01.67.01,1.33,0,2,0,.33,0,.67,0,1-.02,1.33.02,2.67,0,4s.02,2.67,0,4c-.02,1.67.02,3.33,0,5v4c0,3.99,0,8.01,0,12,0,6.99-.04,14.02,0,21,0,1-.01,2,0,3,0,.67-.02,1.33,0,2,.03.98-.12,2.05,0,3,.06.46.54.88,1,1,.5,4.92-.86,9.24-1,14-.1,3.32.04,6.68,0,10-.05,4.62,1.04,8.51,1,13,0,.07-.99.35-1,1s0,1.33,0,2c0,1,0,2,0,3s0,2,0,3c0,2.99.03,6.01,0,9-.02,2.33,0,4.67,0,7,0,7.08-.85,15.27,1,22,0,.67.01,1.33,0,2-.02,1.14.02,2.91,0,4-.15,10.63-.06,20.94.04,31.46.11,11.51-.16,23.04-.04,34.54-.93,8.61-1.05,17.06-1,26,6.98.04,14.01-.03,21,0v21h20v27.01c.6.6,14.18-.38,17,0,.33.04.67-.03,1,0v36.01s16,0,16,0h1c0,.33,0,.67,0,1-.02,7.27.08,14.68,0,22h-17c.34,5.73-.44,11.82,0,17.51.06.84-.38,2.73,1.01,2.49h16s.99,141,.99,141h-18v19h17l1,22h14c.03-2.77-1.07-4.74,2.01-5.5l-2.01-1.49,2.01-.51-2-.5v-1.99s1.99-.99,1.99-.99l-4.99-1,4.99-.02-1.99-2v-.98c3.59.44,2-4.66,1-7h21s0,64.99,0,64.99h-20v-42h-17v42h-38v-304h-18v-27h-20c-.03-6.98.04-14.02,0-21ZM737.98,231v19.02s55.02-.02,55.02-.02c2.28-6.4.4-14.26.99-21l-56.01,2ZM231.02,250c.09,15.65-.06,31.35,0,47.01h45.01c.05-.67-.04-1.34,0-2.01.32-6.53.04-13.43,0-20,7.08-.14,14.12-1.99,21,0v-24c-5.82-.23-11.73.31-17.55.01-1.5-.08-2.93-.99-3.44-1.01v-20h-46c1.67,6.46.96,13.35,1,20ZM738.01,274l-1-23h-22v25l23-1,1,1v1l-1,20h56v-23c0-2.14,1.15-23,0-23h-56c.1,5.65-.14,11.35,0,17,.04,1.48-.15,5.07,0,6ZM333.02,335v1.01s11.99,0,11.99,0v-1.01s-11.99,0-11.99,0ZM231.02,398c-.27,5.14.2,10.39-.03,15.55l1.03,1.45c-.05,8.32-.05,16.68,0,25l-1.01,20.01h57.01c.05-.67-.04-1.34,0-2.01.29-5.96-.21-12.03,0-18,.33,0,.67,0,1,0s.67,0,1,0h20v-24h-20c-.5-.04-1.37-.91-2-1v-18l.98-.49-.98-.51h-57l-.99,1.49.99.51ZM245.02,548c-.11.21.06.64,0,1-.1.59.04,1.34,0,2-.68,12.1-.15,25.76,0,38,.08,6.63-1.25,15.41,1.5,21h41.5c-.16-6.98.22-14.03,0-21h22v-23c-6.38-.53-13.77.72-20,0-.33-.04-.67.03-1,0l-1-1v-18.01c-5.39.7-41.78-1.32-43,1.01ZM736.01,565c-2.45,2.45-16.73.25-21,1v23h21v21h39c.04-3.99-.05-8.01,0-12,.04-3.32-.01-6.68,0-10,.03-7.65.05-15.35,0-23-.04-5.99.03-12.01,0-18h-39v18Z"/>
  <path class="cls-2" d="M444.01,756c1.86,7.36.92,15.46,1,23,0,.33,0,.67,0,1,.08,4.98-.1,10.02,0,15,.02,1-.02,2,0,3,.03,1.73,1.01,3.98,1.05,6.45.64,44.82-.78,89.71-.63,134.5,0,1.17.07,1.29,1.09,2.04h16.5c.12,4.16-.16,8.38,0,12.55.08,1.93-1.03,4.01,2,3.45v2h.99s0-18.01,0-18.01l13.01-.49-14.01-.5c0-46.93-1-94.4-1-141,0-5.92,1-13.33,1-20,0-7.32,0-14.68,0-22h16c.02,6.65.94,14.78,1,22,0,.33,0,.67,0,1,.04,5.65-.03,11.35,0,17h58v-18l1-1,1-21v-1c4.2.28,8.74-.02,13,0,.33,0,.67,0,1,0s.67,0,1,0c0,7.95,1,16.4,1,24,0,6.32,0,12.68,0,19,0,44.98-.07,91.36-.93,136.61-.02,1.25,0,2.55-1.07,3.39-4.23,1.86-9.38.8-14,1l-2.07-3.41c1.02-44.34-1.1-88.83.01-133.15.04-1.71.33-2.94,1.06-4.44h-59l-1,140.99c13.17.08,26.36-.06,39.54-.03,6.24.01,12.08.22,18.46.04,1.84,1.03,2.07,1.12,1.95,3.31-.17,3-.5,10.87-.97,13-.19.84-2.68.68-1.98,2.69-18.65.06-37.35-.04-56,0v65.01s-16.99,0-16.99,0v-65h-21c1,2.35,2.6,7.45-.99,7.01v.98s1.98,2,1.98,2l-4.99.02,4.99,1-1.99.99v1.99s2,.5,2,.5l-2.01.51,2.01,1.49c-3.08.76-1.98,2.73-2.01,5.5h-14l-1-22h-17v-19h18l-.99-141.01h-16c4.49-2.81,11.66.82,16-1.99.03-5.32-.04-10.68,0-16,0-.67,0-1.33,0-2,.08-7.32-.02-14.73,0-22h1c5.07.17,9.94-.83,15-1Z"/>
  <path class="cls-2" d="M594.01,757c.04,6.96.97,14.71,1,22,.03,5.99-.03,12.01,0,18,0,.67,0,1.33,0,2,.22,45.15,1.18,91.51.06,136.56-.04,1.71-.33,2.94-1.06,4.44h22v19h-37v1h14.5c2.22,2.2,2.86,8.86-.51,9.5l2.1,1.93-.09,52.57h-18v-42h17v-1h-14c-1.26-6.03-.24-12.57-.92-18.56-.14-1.21-1.91-3.13-2.11-7.88-2.16-51.3,1.68-104.11.03-155.56v-43c5.46,1.79,11.34.75,17,1Z"/>
  <path class="cls-4" d="M567.01,799h10c1.65,51.44-2.19,104.26-.03,155.56.2,4.75,1.98,6.68,2.11,7.88.68,5.99-.34,12.53.92,18.56h14v1h-17v42h-20v-65c6.32-.04,12.68.03,19,0v-18l-19-1-1-1c1.07-.84,1.04-2.14,1.07-3.39.86-45.25.94-91.63.93-136.61h9Z"/>
  <path class="cls-4" d="M538.01,959c1,0,2,0,3,0l-1,65h-58v-65.01c18.65-.04,37.35.07,56,0Z"/>
  <path class="cls-2" d="M557.01,940l19,1v18c-6.32.03-12.68-.04-19,0v65h-17l1-65c5.32-.02,10.68.03,16,0v-19Z"/>
  <polygon class="cls-3" points="1013 0 1024 0 1024 1024 1023 1024 1023.02 1.58 1013 0"/>
  <rect class="cls-2" x="428.01" y="982" width="17" height="42"/>
  <polygon class="cls-3" points="1.02 1024 .02 1024 .02 605 1.02 1024"/>
  <path class="cls-3" d="M664.01,0c-7.16,1.67-16.84,1.67-24,0h24Z"/>
  <path class="cls-3" d="M.02,45v-23C1.7,28.8,1.7,38.2.02,45Z"/>
  <path class="cls-3" d="M3.02,0C-.73,2.53,1.33,10.18,1.07,14.58c-.08,1.29-1.04,2.29-1.04,2.42V0h3Z"/>
  <path class="cls-3" d="M.02,342v-14c1.67,3.35,1.7,10.44,0,14Z"/>
  <path class="cls-3" d="M457.01,0c-2.67,1.67-9.13,1.7-12,0h12Z"/>
  <path class="cls-3" d="M739.01,0c-2.34,1.66-8.46,1.71-11,0h11Z"/>
  <path class="cls-3" d="M754.01,0c-2.34,1.66-8.46,1.71-11,0h11Z"/>
  <path class="cls-3" d="M676.01,0c-1.86,1.68-7.14,1.68-9,0h9Z"/>
  <path class="cls-3" d="M10.02,0c-.66,1.58-4.34,1.58-5,0h5Z"/>
  <path class="cls-3" d="M439.01,0c-.66,1.58-4.34,1.58-5,0h5Z"/>
  <path class="cls-3" d="M568.01,0c-.66,1.58-4.34,1.58-5,0h5Z"/>
  <path class="cls-3" d="M630.01,0c-1.27,1.4-2.77,1.37-4,0h4Z"/>
  <path class="cls-3" d="M691.01,0c-1,1.21-2,1.21-3,0h3Z"/>
  <path class="cls-3" d="M600.01,0c-1,1.21-2,1.21-3,0h3Z"/>
  <path class="cls-5" d="M557.01,78c6.65.03,13.35-.03,20,0v20l-2,1h32v23l48,1v20h39v193h-19v-21h16c.62-4.15-7.22-1.31-9.5-1.21-2.02.09-4.09-1.65-6.49.21l-1.01-8v48h-18v-17h17v-1h-18v19h19c-.38,105.65.51,211.36,0,317-5.99-.04-12.01.03-18,0v-26h-1v47h-38v18.5c0,1.34-2.07,5.1-.99,7.49h1.99s0-24.99,0-24.99h16v26h-17v36h-22v-1c3.02.56,1.94-1.53,2-3.45,1.3-38.94-.93-78.13-.05-117.1l1.55-3.45h34c.33,0,1.52-1.32,2.5-1v-21h19v-43h-19v-21h-40v21h-18v65l-.99,125.01h-19c-.04-85.99.03-172.02,0-258.01.33.01.67-.01,1,0,.13,0,1.09,1,2.41,1.05,2.88.09,15.68.88,16.59-2.05.04-12.65-.05-25.35,0-38h17.99s1.01,19,1.01,19h37v10h-16v1h16v8c-4.32.47-8.21-1.12-12.51-1.08-2.1.02-4.08,1.02-6,1.06-4.33.09-8.68-.17-13,.01-1.23.05-3.71-.76-3.49,1h37c-2.46-12.81.93-25.93,0-39h19c1.24-12.65-1.63-28.29-.08-40.57.24-1.91,1.92-.95,2.16-2.87.39-3.05-.78-18.88-.08-19.57h9s-8.99-.99-8.99-.99v-39h-1v59h-20v-19h-40v19h-17v-40l17-1c.33-.05.67.03,1,0l1-77h38c.03-6.99-.04-14.01,0-21,5.98.07,12.01-.05,18,0v20l-5.01.5,5.01.5v18h1v-85c-4.95-.72-12.46.99-17,0-.11-.02-1-1.39-2-1v-21h-40c.14,6.98-.2,14.03,0,21,0,.33-.01.67,0,1-5.99.04-12.02-.03-18,0-.02,15.32.05,30.69,0,46.01,0,.33,0,.67,0,1-.02,6.65,0,13.35,0,20l-.99,76.01c-4.21.7-14.04-1.43-17,.99h-1l-1,123h-18v259h-56l.07-253.62c.45-1.52-.74-2.47-1.07-3.38-.17-.46.16-1.38,0-2l-17,1c-.05-.66.04-1.33,0-2,3.02.56,1.94-1.53,2-3.45,1.31-39.09-.98-78.44,0-117.55h14v20l-13.01.5,13.01.5v62l-13.01.5,13.01.5v30h2v-115h-18v-98h-18v-46c-6.32-.03-12.68.04-19,0,0-2.07,1.1-22,0-22h-35c.43,6.02-.56,12.67-.07,18.59.17,2.01.14,2.45,2.07,3.41-.67,0-1.33,0-2,0-6.65.04-13.35-.03-20,0v46c6.65.03,13.35-.03,20,0,0,11.08.47,22.29-.62,33.33l1.62,5.67v-18l34,1c0,.33,0,.67,0,1h-2s0,14,0,14h-26v2h27c-2.75,11.86.44,25.52-.91,37.57-.26,2.33-2.08.94-2.1,1.93l3.02.51-1.06,18.33c6.13,4.77,13.01.72,20.05,1.66v40c-5.97.18-12.03-.25-18,0v-19h-35v82h35v-82h-35v20c-6.65.07-13.35-.05-20,0v42c1.86,1.87,16.1.96,20,1v19h35v-19c5.99.04,12.02-.03,18,0l.99,39.01,18,.99c0,85.65-.03,171.35,0,257.01-6.31.13-12.69-.18-19,0v-124c0-.33,0-.67,0-1,.07-6.98-.11-14.02,0-21,.02-1.46,1-3.41,1.04-5.45.22-12.84-.25-25.72-.03-38.56-.6-.6-14.31.59-17,0-.11-.02-1-1.39-2-1v-20h-35c-.03,6.99.03,14.01,0,21-6.65.07-13.35-.05-20,0v42l.98,1.49c4.79,2.07,13.92-.38,19.02-.49.03,7.32-.02,14.68,0,22.01h35c.05,41.64.11,83.35,0,124.99h-1l-15-.99.02-33.55-1.02-1.45c-.33-.03-.67.04-1,0l-16-.99.03-24.56-1.03-1.45h-20v-21c-6.98-.03-14.01.04-21,0-.05-8.94.07-17.39,1-26,.02-.22,1.78-2.07,1.07-3.4l-.06-246.1c-1.42-1.62-.98,1.11-1.01,1.98-.16,5.35.29,10.76.04,16.1-.06,1.29-1.04,2.29-1.04,2.42v-38c0,.13.96,1.13,1.04,2.42.2,3.34-.17,6.74-.04,10.09.05,1.23-.76,3.72,1,3.49v-57h18v16h1v-17h-20c0-.13-1.02-1.13-1.04-2.42-.09-6.52.15-13.07.04-19.58h-20v1h19v20l-1.01-7-7.94,1.1-.06,2.89c-2.74.74-1.85-1.72-3.52-3.01l-6.48,3.51v20.5c-1.76.22-.95-2.26-1-3.49-.49-11.69.02-23.78,0-35.51v-106c0-.33,0-.67,0-1l.99-64.01c6.65-.04,13.35.07,20,0s13.82.83,20-1c-.27,5.96.19,12.03,0,18h-18v-16h-1v17h20l.99-39.01c11.12.26,22.32-.37,33.44.08,1.73.07,2.91,2.47,2.57-1.08.33,0,.67,0,1,0l16,1v20c1.76.22.95-2.26,1-3.49.24-5.82-.22-11.7,0-17.51.01-.33-.01-.67,0-1,0-.13.99-1.09,1.05-2.41.28-6.16-.29-12.43-.05-18.59h23v20c1.76.22.95-2.26,1-3.49.2-4.75-.59-10.47.05-14.96.22-1.55,1.69-2.77,2-5,.74-5.25-.64-12.09-.05-17.55h101v19h-91v1h92v-21ZM464.01,98.01c-1.98.55-7.11-1.29-7.99.98,1.98-.55,7.11,1.29,7.99-.98ZM675.01,180v-28l-1.44,10.5.44,33.5h17v-1h-16v-14h16v-1h-16ZM674.01,198v26h1v-15c2.49-.07,5.02.11,7.51,0,1.22-.05,3.72.76,3.48-.99h-11c-.07-2.16.1-4.36,0-6.52-.06-1.23.76-3.71-1-3.49ZM675,236.99v-5.99h-.98v5.99h.98ZM675.01,249v-9.99s-1,0-1,0v27h1v-16h18v-1h-18ZM674.51,267v1c.65-.33.65-.67,0-1ZM674.51,270v1c.65-.33.65-.67,0-1ZM675.01,275h-1v29h1v-29ZM332.01,320.01v9.99s1,0,1,0v-9.99s-1,0-1,0ZM373.02,355h-1v40h1v-40ZM656.01,460h-1v38h1v-38ZM501.01,498h-16v1h15v236l-7.01.5,7.01.5v19h1v-257ZM656.01,499h-1v66h1v-66ZM393.01,672h-19v1h17c.57,2.12-1.72,7.83,1.99,6.99v-7.99ZM393.01,682.01h-1.99v.98h1.99v-.98Z"/>
  <path class="cls-1" d="M429.01,610v21.01s17,0,17,0c0,.33,0,.67,0,1l-.99.5c.26,2.29-.98,5.83.99,7.5-.28,31.86,0,63.25,0,95-3.02.56-1.94-1.53-2-3.45-1.11-33.11.83-66.43,0-99.55h-15v125h-1c0-.33,0-.67,0-1,.11-41.65.05-83.35,0-125,0-7.32.02-14.68,0-22l1,1Z"/>
  <path class="cls-1" d="M428.01,779c0,.67,0,1.33,0,2l-16-1v17h16c-4.34,2.81-11.51-.81-16,2-1.4.24-.95-1.65-1.01-2.49-.43-5.69.34-11.79,0-17.52h17Z"/>
  <polygon class="cls-3" points="411.01 720 412.03 721.45 412.01 755.01 427.01 756 411.01 756.01 411.01 720"/>
  <path class="cls-3" d="M393.01,693l1.03,1.45-.03,24.56,16,.99c-2.82-.38-16.4.61-17,0v-27.01Z"/>
  <path class="cls-3" d="M594.01,756c0,.33,0,.67,0,1-5.66-.25-11.54.79-17-1,.1-27.98-.13-56.02,0-84,3.03.56,1.92-1.53,2-3.45.49-12.48-.37-25.07,0-37.55,4.92-.38,10.44,1.01,15-1,.22,41.98-.23,84.02,0,126Z"/>
  <path class="cls-3" d="M596.01,779c5.71,2.28,12.93.4,19,1v17h-20c-.03-5.99.03-12.01,0-18h1Z"/>
  <path class="cls-1" d="M577.01,609h18c.03,7.32-.05,14.68,0,22v1c.02,5.32-.02,10.68,0,16v1c.01,3.33,0,6.67,0,10v1c0,.67,0,1.33,0,2v94h-1c-.23-41.98.22-84.02,0-126-.03-6.65.02-13.35,0-20.01h-17s0-.99,0-.99Z"/>
  <path class="cls-1" d="M596.01,779h20v20h-21c0-.67,0-1.33,0-2h20v-17c-6.07-.6-13.29,1.28-19-1Z"/>
  <path class="cls-4" d="M539.01,940c-6.38.17-12.21-.03-18.46-.04-13.18-.03-26.37.12-39.54.03l1-140.99h59c-.73,1.5-1.02,2.74-1.06,4.44-1.11,44.33,1,88.81-.01,133.15l2.07,3.41c-1,.04-2-.03-3,0Z"/>
  <path class="cls-3" d="M482.01,499c.06,84.51-.1,169.05.04,253.57,0,1.87-1.04,3.76-1.04,4.43h-15v-258.01s16,0,16,0Z"/>
  <path class="cls-3" d="M555.01,756l-13-.99v-256.01h14l.09,29.58-2.09,1.91,2.06,3.95-.06,221.56c-.33,0-.67,0-1,0Z"/>
  <path class="cls-4" d="M464.01,799c0,46.6,1,94.07,1,141v17c-3.03.56-1.92-1.53-2-3.45-.16-4.17.12-8.39,0-12.55h-16.5c-1.02-.75-1.08-.87-1.09-2.04-.14-44.8,1.28-89.68.63-134.5-.04-2.47-1.02-4.72-1.05-6.45,5.89,2.14,12.81.51,19,1Z"/>
  <path class="cls-4" d="M558.01,375c-.05,3.32.07,6.68,0,10-.05,2.33.02,4.67,0,7,0,.67,0,1.33,0,2,0,.33,0,.67,0,1,0,.67,0,1.33,0,2,0,.33,0,.67,0,1v26c0,1,0,2,0,3,0,4.32,0,8.68,0,13v58c-.33-.01-.67.01-1,0-5.64-.18-11.36.14-17,0v29.01c0,.67,0,1.33,0,2s0,1.33,0,2c0,.33,0,.67,0,1v100c0,3.33,0,6.67,0,10,0,1.33,0,2.67,0,4v43c0,1,0,2,0,3,0,.33,0,.67,0,1,0,1,0,2,0,3v24c0,.33,0,.67,0,1,0,2.33-.01,4.67,0,7,0,.33,0,.67,0,1,.01,2.33-.02,4.67,0,7,0,.33,0,.67,0,1,.01,1.33-.02,2.67,0,4,0,.67-.01,1.33,0,2s-.02,1.33,0,2c0,.33-.01.67,0,1,.12,3.08-.18,6.02,1,9l-.98.5.98.5c.33.02.67-.02,1,0v1c-2.28.7-1.95,2.58-2.06,4.45-.28,4.94-.51,11.96,1.06,16.55l-1,1h-58c-.06-7.22-.98-15.35-1-22,0-.67,1.04-2.56,1.04-4.43-.14-84.52.02-169.06-.04-253.57.34.91,1.52,1.87,1.07,3.38l-.07,253.62h56v-259h18l1-123v1Z"/>
  <path class="cls-3" d="M540.01,780v17h-58c-.03-5.65.04-11.35,0-17h58Z"/>
  <path class="cls-1" d="M557.01,498c.03,85.98-.04,172.02,0,258-.33,0-.67,0-1,0l.06-221.56-2.06-3.95,2.09-1.91-.09-29.58h-14v256.01s13,.99,13,.99c-4.25-.02-8.8.28-13,0-.33-.02-.67.02-1,0v-1c-1.18-2.98-.88-5.92-1-9l.98-.5-.98-.5c-.02-.67.01-1.33,0-2l.99-1.49-.99-.51c-.02-1.33.01-2.67,0-4l.98-.5-.98-.5c-.02-2.33.01-4.67,0-7l.98-.5-.98-.5c-.01-2.33,0-4.67,0-7l.98-.5-.98-.5v-23l.98-.5-.98-.5c0-1,0-2,0-3l.98-.5-.98-.5c0-1,0-2,0-3l.98-.5-.98-.5v-42c1.56-.41,1.5-3.68,0-4,0-3.33,0-6.67,0-10,1.65-1.26,1.65-5.74,0-7v-93l.98-.5-.98-.5c0-.67,0-1.33,0-2l.99-1.49-.99-.51v-29.01c5.64.14,11.36-.18,17,0Z"/>
  <path class="cls-4" d="M577.01,638c-.3,3.5.08,7.41,0,11,0,.33,0,.67,0,1-.14,7.31.03,14.69,0,22-.13,27.98.1,56.02,0,84v23c-5.89,2.14-12.81.51-19,1,0-7.6-1-16.05-1-24h19s.99-125,.99-125v7Z"/>
  <path class="cls-1" d="M465.01,496c.03.66-.05,1.34,0,2l17-1c.17.62-.16,1.54,0,2h-16s0,258,0,258h-1c0-.33,0-.67,0-1-.02-85.65.01-171.35,0-257.01l-18-.99c-.05-.66.08-1.35,0-2,1.67-2.67,1.7-9.13,0-12,.05-1.66-.05-3.34,0-5,0-.13.98-1.13,1.04-2.42.21-4.68-.23-9.41-.04-14.09.05-1.22-.75-3.72.99-3.48v37.99h15.01l1-121c1.43,39.6-1.92,80.56,0,120Z"/>
  <path class="cls-4" d="M446.01,756c6.31-.18,12.69.13,19,0,0,.33,0,.67,0,1,0,7.32,0,14.68,0,22h-20c-.08-7.54.86-15.64-1-23,.67-.02,1.33.02,2,0Z"/>
  <path class="cls-3" d="M577.01,799h-9l-.5-2.01-.5,2.01h-9c0-6.32,0-12.68,0-19,6.19-.49,13.11,1.14,19-1v20ZM574.51,796v1c.65-.33.65-.67,0-1Z"/>
  <path class="cls-3" d="M557.01,940v19c-5.32.03-10.68-.02-16,0-1,0-2,0-3,0-.7-2.01,1.8-1.85,1.98-2.69.47-2.13.8-10.01.97-13,.12-2.19-.11-2.28-1.95-3.31,1-.03,2,.04,3,0,4.62-.2,9.77.86,14-1l1,1ZM556.01,941h-14l.44,15.07,13.55,1.93v-17Z"/>
  <path class="cls-1" d="M465.01,779c0,6.67-1,14.08-1,20-6.19-.49-13.11,1.14-19-1-.02-1,.02-2,0-3,2.29-.52,1.42,1.84,3.44,2.08,4.45.53,9.96-.54,14.56-.08v-17h-18c0-.33,0-.67,0-1h20Z"/>
  <path class="cls-1" d="M540.01,779v1h-58c0-.33,0-.67,0-1h58Z"/>
  <path class="cls-3" d="M541.01,778c-1.57-4.6-1.34-11.62-1.06-16.55.11-1.87-.22-3.75,2.06-4.45l-1,21Z"/>
  <polygon class="cls-3" points="465.01 940 479.02 940.5 466.01 940.99 466 959.01 465.01 959 465.01 957 465.01 940"/>
  <polygon class="cls-2" points="568.01 799 567.01 799 567.51 796.99 568.01 799"/>
  <path class="cls-2" d="M793.01,415c.18.02.62.81,1,1,.04,7.65.04,15.35,0,23h-54s-.49-11.01-.49-11.01l-.5,12.01h54v19l-54,1c-.33,0-.67,0-1,0-.03-3.32.78-19.12-1-20l-.5-.98-.5.98c-6.34-.89-14.43.65-21,0v-23c4.72-.29,9.81.41,14.48-.02,2.78-.26,6.44-1.87,8.52-1.98,14.42-.82,41.21-1.63,55,0Z"/>
  <path class="cls-2" d="M287.02,415c.33.04.67-.05,1,0,.63.09,1.5.96,2,1,.13.01.9.88,2.4,1.06,5.13.6,11.34-.55,16.6-.06v20.5c-4.96,3.84-13.45-.55-19,2.5-.33,0-.67,0-1,0-1.04-1.66-3.79-1-5.49-1.02-7.27-.08-14.78-.28-22.02.02-1.22.05-3.72-.75-3.48.99h29.99c-.21,5.98.29,12.05,0,18.01l-56,1.01c-.02-6.32.04-12.68,0-19.01-.05-8.32-.05-16.68,0-25,17.48,1.41,37.88-1.89,55,0ZM233.02,439v1h23v-1h-23Z"/>
  <path class="cls-2" d="M738.01,268c-.14-5.65.1-11.35,0-17h56c1.15,0,0,20.86,0,23l-1,22h-53l-1-19v-1c16.17-2.33,33.09-.32,49.51-1,1.23-.05,3.71.76,3.49-1h-52v-6.01s-2,0-2,0Z"/>
  <path class="cls-2" d="M276.02,250c.52.02,1.95.93,3.44,1.01,5.82.3,11.74-.24,17.55-.01v24c-6.88-1.99-13.92-.14-21,0-.03-4.99.03-10.01-.01-14.99h-.99s0,13.99,0,13.99h-42c-.22,1.76,2.26.95,3.49,1,12.74.53,26.71.26,39.51,0,.04,6.57.32,13.47,0,20l-44,1.01v-45.01h1.01c1.04,1.66,3.79,1,5.49,1.02,6.54.07,14.34.75,20.51-1.02,1,0,2,0,3,0l13.99.99-3.99-.99v-1c1.56-1.11,2.99-.04,4,0Z"/>
  <path class="cls-2" d="M245.02,589c12.46-.38,25.05.52,37.51,0,1.23-.05,3.71.76,3.49-1h-39v-20.5c.8-.79,3.72-2.5,4.5-2.5h35.5c.58,4.35-.6,9.37-.44,13.5.13,3.34,1.37,8.17,1.44,10.5.22,6.97-.16,14.02,0,21h-41.5c-2.75-5.59-1.42-14.37-1.5-21Z"/>
  <rect class="cls-3" x="737.99" y="230.95" width="55.04" height="19.06"/>
  <path class="cls-3" d="M738.01,397h55s0,18,0,18c-13.79-1.63-40.57-.82-55,0v-18Z"/>
  <path class="cls-2" d="M737.01,588c.98.98,1,.9,2.4,1.05,10.72,1.19,23.64-.99,34.61-.06l.99,9c-.05,3.99.04,8.01,0,12h-39v-21l-1.45-1.03-18.55.03v-21h18.5c3.42,3.71-.61,17.9,2.5,21Z"/>
  <path class="cls-2" d="M774.01,565h1c.05,7.65.03,15.35,0,23h-38v-23.01s37,0,37,0Z"/>
  <path class="cls-3" d="M288.02,565l1,1c-1.65,6.96-1.65,16.04,0,23h-1c-.07-2.33-1.31-7.16-1.44-10.5-.16-4.13,1.02-9.15.44-13.5h-35.5c-.78,0-3.7,1.71-4.5,2.5v20.5h39c.22,1.76-2.26.95-3.49,1-12.46.52-25.05-.38-37.51,0-.15-12.24-.68-25.9,0-38l2.55-3.07,37.81.21c3.83,1.25-.23,13.9,2.64,16.86Z"/>
  <path class="cls-2" d="M738.01,275l-23,1v-25h22l1,23c.05.32-.04.67,0,1Z"/>
  <path class="cls-2" d="M290.02,566l19,2v20c-6.07.6-13.29-1.28-19,1h-1c-1.65-6.96-1.65-16.04,0-23,.33.03.67-.04,1,0Z"/>
  <path class="cls-3" d="M353.02,646c-.12-11.5.15-23.03.04-34.54-.1-10.52-.19-20.83-.04-31.46v-4c.01-.67,0-1.33,0-2,.07-7.04.79-15.3-1-22,0-2.33-.02-4.67,0-7,1.68-1.86,1.68-7.14,0-9,0-1,0-2,0-3,1.5-.14,1.5-2.86,0-3,0-.67,0-1.33,0-2l1-1c.04-4.49-1.05-8.38-1-13,1.71-2.21,1.66-7.98,0-10,.14-4.76,1.5-9.08,1-14-.05-.46-.53-.9-1-1-.12-.95.03-2.02,0-3l.99-1.49-.99-.51c-.01-1,0-2,0-3,1.67-6.09,1.67-14.91,0-21,0-3.99,0-8.01,0-12,1.56-.41,1.5-3.68,0-4,.02-1.67-.02-3.33,0-5,1.56-.41,1.5-3.68,0-4,.02-1.33-.02-2.67,0-4l.98-.5-.98-.5c.01-.67-.01-1.33,0-2,1.56-.41,1.5-3.68,0-4,.06-2.33-.09-4.68,0-7,0-.13.98-1.13,1.04-2.42.24-5.34-.2-10.75-.04-16.1.03-.87-.41-3.6,1.01-1.98l.06,246.1c.71,1.32-1.04,3.17-1.07,3.4Z"/>
  <path class="cls-3" d="M557.01,78v21h-92v-1h91v-19h-101c-.59,5.46.79,12.3.05,17.55-.31,2.23-1.78,3.45-2,5-.64,4.49.15,10.21-.05,14.96-.05,1.23.76,3.71-1,3.49v-20h-23c-.25,6.16.32,12.42.05,18.59-.06,1.32-1.04,2.28-1.05,2.41v-22c8.26-.48,16.72.35,25,0v-21c34.65.14,69.35-.18,104,0Z"/>
  <path class="cls-5" d="M428.01,99v1l-1,20h-15l-.99-18.99c5.47-.09,11.67-1.7,16.99-2.01Z"/>
  <path class="cls-1" d="M231.02,250c-.04-6.65.67-13.54-1-20h46v20c-1.01-.04-2.44-1.11-4,0h-41ZM232.02,231v17h43v-17h-43Z"/>
  <path class="cls-3" d="M739.01,460l54-1v-19h-54l.5-12.01.49,11.02h54c-.03,6.98.02,14.01,0,21-18.32-.06-36.69.06-55,0Z"/>
  <polygon class="cls-3" points="794.01 274 794.01 297 738.01 297 739.01 277 740.01 296 793.01 296 794.01 274"/>
  <path class="cls-3" d="M331.02,315c-.06-35.32-.05-70.68,0-106v106Z"/>
  <path class="cls-3" d="M353.02,337h20v17h-1v-16h-18v57c-1.76.22-.95-2.26-1-3.49-.13-3.35.24-6.75.04-10.09-.08-1.29-1.04-2.29-1.04-2.42-.04-1,.04-2,0-3,1.68-5.81,1.67-14.27,0-20,0-.67,0-1.33,0-2l.99-1.49-.99-.51c-.05-5.27,1.03-9.83,1-15Z"/>
  <path class="cls-1" d="M288.02,396v19c-.33-.05-.67.04-1,0v-18h-55c-.03,5.99.04,12.01,0,18l-1.03-1.45c.23-5.17-.24-10.41.03-15.55.03-.66-.02-1.34,0-2h57Z"/>
  <path class="cls-3" d="M232.02,251v45.01s44-1.01,44-1.01c-.03.66.05,1.34,0,2h-45.01c-.06-15.64.1-31.35,0-47h1v1Z"/>
  <path class="cls-3" d="M736.01,565c2.38-2.38.32-13.16,1-17h37v17h-37s0,23,0,23c-3.11-3.1.92-17.29-2.5-21h-18.5v21l18.55-.03,1.45,1.03h-21v-23c4.27-.75,18.55,1.45,21-1Z"/>
  <path class="cls-3" d="M775.01,588c-.01,3.32.04,6.68,0,10l-.99-9c-10.97-.93-23.89,1.25-34.61.06-1.4-.16-1.42-.08-2.4-1.05h38Z"/>
  <path class="cls-3" d="M352.02,144c-6.65.06-13.35-.04-20,0l-.99,64.01c.03-21.65-.02-43.35,0-65.01l21,1.01Z"/>
  <path class="cls-1" d="M793.01,250h.02s0-19.06,0-19.06l-55.04.02v.04s56.01-2,56.01-2c-.59,6.74,1.29,14.59-.99,21Z"/>
  <path class="cls-3" d="M232.02,440c.04,6.32-.02,12.68,0,19.01l56-1.01c-.03.66.05,1.34,0,2h-57.01s1.01-20,1.01-20Z"/>
  <path class="cls-1" d="M738.01,397l56-1.01c.02,6.65-.04,13.35,0,20.01-.38-.19-.82-.98-1-1v-18.01s-55,0-55,0Z"/>
  <path class="cls-1" d="M736.01,565v-18h39c.03,5.99-.04,12.01,0,18h-1v-17h-37c-.68,3.84,1.38,14.62-1,17Z"/>
  <path class="cls-3" d="M290.02,566c6.23.72,13.62-.53,20,0v23h-20c5.71-2.28,12.93-.4,19-1v-20l-19-2Z"/>
  <path class="cls-1" d="M245.02,548c1.22-2.32,37.61-.31,43-1.01v18.01c-2.88-2.96,1.19-15.61-2.64-16.86l-37.81-.21-2.55,3.07c.04-.66-.1-1.41,0-2l.98-.5-.98-.5Z"/>
  <path class="cls-3" d="M738.01,268h2s0,6,0,6h52c.22,1.76-2.26.95-3.49,1-16.42.68-33.34-1.33-49.51,1l-1-1c-.04-.33.05-.68,0-1-.15-.93.04-4.52,0-6Z"/>
  <path class="cls-3" d="M290.02,416h20v24h-20c5.55-3.05,14.04,1.34,19-2.5v-20.5c-5.27-.49-11.48.65-16.6.06-1.5-.17-2.26-1.05-2.4-1.06Z"/>
  <path class="cls-3" d="M410.01,122c.34,3.54-.84,1.15-2.57,1.08-11.12-.45-22.32.18-33.44-.08l-.99,39.01h-20v-17h1v16h18c.19-5.97-.27-12.04,0-18,0-.14.98-1.13,1.04-2.42.27-6.17-.28-12.42-.05-18.58h37Z"/>
  <path class="cls-3" d="M428.01,122c-.22,5.81.24,11.69,0,17.51-.05,1.23.76,3.71-1,3.49v-20l-16-1h17Z"/>
  <path class="cls-3" d="M289.02,440c-.33,0-.67,0-1,0h-29.99c-.23-1.75,2.27-.95,3.48-1,7.24-.3,14.76-.09,22.02-.02,1.69.02,4.45-.64,5.49,1.02Z"/>
  <path class="cls-5" d="M353.02,574c-1.85-6.73-.99-14.92-1-22,1.79,6.7,1.07,14.96,1,22Z"/>
  <path class="cls-5" d="M352.02,481c-.04-6.98,0-14.01,0-21,1.67,6.09,1.67,14.91,0,21Z"/>
  <path class="cls-5" d="M352.02,376c-.24-6.63.07-13.36,0-20,1.67,5.73,1.68,14.19,0,20Z"/>
  <rect class="cls-5" x="338.51" y="329.51" width="1.01" height="11.99" transform="translate(3.43 674.43) rotate(-89.99)"/>
  <path class="cls-5" d="M352.02,514c.04-3.32-.1-6.68,0-10,1.66,2.02,1.71,7.79,0,10Z"/>
  <path class="cls-5" d="M352.02,545c.03-2.99,0-6.01,0-9,1.68,1.86,1.68,7.14,0,9Z"/>
  <path class="cls-5" d="M352.02,448v-4c1.5.32,1.56,3.59,0,4Z"/>
  <path class="cls-5" d="M353.02,580c.02-1.09-.02-2.86,0-4v4Z"/>
  <path class="cls-5" d="M352.02,428c.03-1.33-.04-2.67,0-4,1.5.32,1.56,3.59,0,4Z"/>
  <path class="cls-5" d="M352.02,439c.02-1.33-.02-2.67,0-4,1.5.32,1.56,3.59,0,4Z"/>
  <path class="cls-5" d="M352.02,533c0-1,0-2,0-3,1.5.14,1.5,2.86,0,3Z"/>
  <path class="cls-5" d="M352.02,486c-.02-.67,0-1.33,0-2l.99.51-.99,1.49Z"/>
  <path class="cls-2" d="M231.02,398l-.99-.51.99-1.49c-.02.66.03,1.34,0,2Z"/>
  <path class="cls-5" d="M352.02,354c0-.67,0-1.33,0-2l.99.51-.99,1.49Z"/>
  <path class="cls-5" d="M352.02,431c0-.33,0-.67,0-1l.98.5-.98.5Z"/>
  <path class="cls-3" d="M737.01,440c-.33-.03-.67.05-1,0l.5-.98.5.98Z"/>
  <path class="cls-5" d="M352.02,528c0-.65,1-.93,1-1l-1,1Z"/>
  <path class="cls-3" d="M245.02,549c.06-.36-.11-.79,0-1l.98.5-.98.5Z"/>
  <path class="cls-5" d="M353.02,490c-.46-.12-.94-.54-1-1,.47.1.95.54,1,1Z"/>
  <polygon class="cls-2" points="288.02 397 288.02 396 289 396.51 288.02 397"/>
  <path class="cls-4" d="M577.01,609v-43h18v-21h40v21h19v43h-19v21c-.98-.32-2.17,1-2.5,1h-34l-1.55,3.45c-.88,38.97,1.35,78.15.05,117.1-.06,1.93,1.02,4.01-2,3.45v-93c0-.67,0-1.33,0-2,0-.33,0-.66,0-1,0-3.33.01-6.67,0-10,0-.33,0-.66,0-1-.02-5.32.02-10.68,0-16,0-.33,0-.66,0-1-.05-7.32.03-14.68,0-22.01h-18ZM597.01,589c.03,5.28-1.3,11.76-1,18,.03.66-.05,1.34,0,2,11.95-.43,24.07.58,36.01,0,.66-.03,1.34.05,2,0,.04-6.65-.05-13.35,0-20.01.06-7.65-.04-15.35,0-23-.64.05-1.4-.12-1.99,0h-36c.02,6.84,0,13.71-.03,20.57,0,1.27,1.03,2.3,1.03,2.43Z"/>
  <path class="cls-4" d="M577.01,373l1.45,1.03c5.22-.55,11.53.67,16.55-.03l-17,1v40h17v-19h40v19h20v-59h1v39l8.99.99h-9c-.69.7.47,16.53.08,19.58-.24,1.91-1.92.95-2.16,2.87-1.55,12.27,1.32,27.91.08,40.57h-19c.93,13.07-2.46,26.19,0,39h-37c-.22-1.76,2.26-.95,3.49-1,4.32-.18,8.67.08,13-.01,1.91-.04,3.9-1.04,6-1.06,4.3-.05,8.2,1.55,12.52,1.08v-8h-16v-1h16v-10h-37l-1.01-18.99h-17.99c.11-26.14,1.94-56.96.01-82.52-.06-.84.38-2.73-1.01-2.49h-17c2.97-2.43,12.79-.29,17-.99l.99-76.01c-.03,25.32.02,50.68,0,76ZM596.01,416c-1.32,6.52.97,16.98,0,24-.19,6.31.14,12.69,0,19.01,5.42-.33,11.18.41,16.56.05,1.86-.13,3.74.24,4.45-2.06h16v-17h-36v17h21v2c4.54-.29,9.53.42,14,0,.89-.08,1.88.26,2-1,.04-5.99-.05-12.01,0-18,.07-7.98-.05-16.02,0-24-.66-1.58-4.34-1.58-5,0-10.61-.49-21.38.36-32,0l-.5-.98c-.61.17-.42.56-.5.98Z"/>
  <path class="cls-4" d="M395.01,230c-1.93-.95-1.9-1.4-2.07-3.41-.49-5.93.5-12.58.07-18.59h35c1.1,0,0,19.93,0,22,6.32.04,12.68-.03,19,0v46h18v98h18v115h-2v-30l-13.01-.5,13.01-.5v-62l-13.01-.5,13.01-.5v-20h-14c-.98,39.1,1.31,78.45,0,117.55-.06,1.93,1.02,4.01-2,3.45-1.92-39.44,1.43-80.4,0-120l-1.45-1.03c-4.84.2-9.74-.21-14.55.03-.66.03-1.34-.05-2,0-.04,6.65.05,13.35,0,20.01,0,.33,0,.67,0,1-.06,9.32.02,18.68,0,28-.03,10.65,0,21.35,0,32v23c-.05,1.66.05,3.34,0,5-.11,3.62-.4,8.55,0,12,.08.65-.05,1.34,0,2l-.99-39.01c-5.99-.02-12.02.04-18,0v-44c-11.71.48-23.22.88-35,1v43c5.98.07,12.01-.03,18,0,5.65.03,11.35-.04,17,0v19h-35v-19c-3.9-.04-18.14.87-20-1v-42c6.65-.05,13.35.07,20,0v-20h35v82h-35v-82h35v19c5.97-.25,12.03.18,18,0v-40c-7.04-.94-13.91,3.11-20.05-1.66l1.06-18.33-3.02-.51c.02-.99,1.84.4,2.1-1.93,1.35-12.05-1.84-25.71.91-37.57h-27v-2h26v-14.01s2,0,2,0c.13,24.95-.13,50.01,0,75h18c-.05-19.65.07-39.35,0-59-.05-12.17.01-24.37.03-36.55l-1.03-1.45h-16l-1-1c.08,7.32-.04,14.68,0,22l-34-1v18l-1.62-5.67c1.09-11.04.62-22.25.62-33.33-6.65-.03-13.35.03-20,0v-46c6.65-.03,13.35.04,20,0v20c0,8.65,0,17.35,0,26,11.65.06,23.35-.05,35,0-.1-8.96.37-18.06,0-27v-19c-10.98-.06-22.02-.05-33,0ZM463.01,277h-16v77h16v-15.5c0-.3,1.27-.77,1-1.5h-15v-1h14v-19.5c0-.21,1.49-1.13,1-1.49l-10.01-.51,9.01-.5v-17l-6.01-.5,6.02-.49v-19.01ZM463.01,355h-16v18h17l-1-18Z"/>
  <path class="cls-3" d="M577.01,459c-.05,12.65.04,25.35,0,38h-17v-122l16-1c1.4-.24.95,1.65,1.01,2.49,1.93,25.57.09,56.39-.01,82.51Z"/>
  <path class="cls-3" d="M429.01,757v-125h15c.83,33.11-1.11,66.44,0,99.55.06,1.93-1.02,4.01,2,3.45v21c-.67.02-1.33-.02-2,0-5.06.17-9.93,1.17-15,1Z"/>
  <path class="cls-4" d="M595.01,229c-.2-6.97.14-14.02,0-21h40v21l2,1c4.54.99,12.05-.72,17,0v85h-1v-18l-5.01-.5,5.01-.5v-20c-5.98-.05-12.02.07-18,0-.04,6.99.03,14.01,0,21h-38l-1,77-1-2c.13-1.3-.03-2.68,0-4,1.67-6.45,1.67-15.55,0-22,.04-6.32.03-12.68,0-19,0-.33,0-.66,0-1-.02-2.33.03-4.67,0-7,1.65-1.26,1.65-5.74,0-7v-5c-.1-3.32.15-6.69,0-10-.01-.33.02-.67,0-1v-20.01s-18,0-18,0c.04-15.32-.03-30.69,0-46.01,5.99-.02,12.02.04,18,0,.02.55.94,1.97,1.01,3.45.25,5.5-.19,11.06,0,16.55-.34,8.62.24,17.37.01,26l.99-1c12.7-.06,25.3.86,38,1,.05-8.93,0-17.39-1-26v-20.01c-11.98.05-24.01-.05-36,0l-3-1Z"/>
  <path class="cls-4" d="M393.01,566c.03-6.99-.03-14.01,0-21h35v20l2,1c2.7.58,16.4-.61,17,0-.21,12.83.25,25.71.03,38.56-.04,2.04-1.02,3.99-1.04,5.45h-17l-1-1c-.04-13.44.65-27.68,0-41-.03-.66.05-1.34,0-2-11.65.09-23.36-.13-35.01,0-.04,7.32,0,14.68,0,22s-.03,14.01,0,21c11.64-.25,23.36.18,35,0,.02,7.32,0,14.68,0,22h-35c-.02-7.32.04-14.68,0-22-5.1.11-14.23,2.56-19.02.49l-.98-1.49v-42c6.65-.05,13.35.07,20,0Z"/>
  <path class="cls-2" d="M446.01,610c-.11,6.98.07,14.02,0,21h-17s0-21,0-21h17Z"/>
  <path class="cls-2" d="M577.01,610h17c.02,6.65-.04,13.35,0,20-4.56,2.01-10.08.62-15,1-.33.03-.68-.06-1,0s-.67-.04-1,0v-21Z"/>
  <path class="cls-2" d="M577.01,277h17c.26,5.48-.35,11.1-.05,16.59.07,1.32,1.04,2.28,1.05,2.41.02.33-.01.67,0,1h-18c0-6.65-.02-13.35,0-20Z"/>
  <polygon class="cls-4" points="501.01 498 501.01 755 500.01 755 500.01 736 493 735.5 500.01 735 500.01 499 485.01 499 485.01 498 501.01 498"/>
  <path class="cls-1" d="M576.01,374l-16,1v122h17c-.9,2.92-13.71,2.14-16.59,2.05-1.32-.04-2.28-1.04-2.41-1.05v-25l.98-.5-.98-.5v-4c1.5-.14,1.5-2.86,0-3v-9c1.68-1.86,1.68-7.14,0-9v-6l.98-.5-.98-.5c0-4.32,0-8.68,0-13,1.5-.14,1.5-2.86,0-3v-26l.98-.5-.98-.5c0-.67,0-1.33,0-2l.98-.5-.98-.5c0-.67,0-1.33,0-2,1.65-1.26,1.65-5.74,0-7,.07-3.32-.05-6.68,0-10,.37-.29.64-.71,1-1h17Z"/>
  <path class="cls-1" d="M429.01,277v38.01s16,0,16,0h1c.07,19.65-.05,39.35,0,59h-18c-.13-24.99.13-50.05,0-75,0-.33,0-.67,0-1-.04-7.32.08-14.68,0-22l1,1ZM445.06,316h-16.05v57h16.05v-57Z"/>
  <path class="cls-4" d="M446.01,755v-20c0-31.75-.28-63.14,0-95,.02-2.66-.03-5.34,0-8v123Z"/>
  <path class="cls-1" d="M395.01,230c10.98-.05,22.02-.06,33,0v19c0-.13-.97-1.13-1.04-2.42-.27-5.16.28-10.42.04-15.58h-33v17c4.49.11,9.04-.15,13.54,0,1.93.06,4.01-1.02,3.45,2-5.65-.05-11.35.03-17,0h-1v-20c.67,0,1.33,0,2,0Z"/>
  <polygon class="cls-4" points="675.01 180 691.01 180 691.01 181 675.01 181 675.01 195 691.01 195 691.01 196 674.01 196 673.57 162.5 675.01 152 675.01 180"/>
  <rect class="cls-4" x="655.01" y="499" width="1" height="66"/>
  <polygon class="cls-4" points="675.01 249 693.01 249 693.01 250 675.01 250 675.01 266 674.01 266 674.01 239 675 239.01 675.01 249"/>
  <rect class="cls-3" x="372.02" y="355" width="1" height="40"/>
  <rect class="cls-4" x="655.01" y="460" width="1" height="38"/>
  <path class="cls-4" d="M674.01,198c1.76-.22.94,2.25,1,3.49.1,2.17-.08,4.36,0,6.52h11c.23,1.75-2.26.94-3.48.99-2.5.11-5.03-.07-7.51,0v15h-1v-26Z"/>
  <path class="cls-3" d="M577.01,276h18s0,20,0,20c0-.13-.97-1.09-1.05-2.41-.3-5.49.31-11.1.05-16.59h-17c0-.33,0-.66,0-.99Z"/>
  <path class="cls-4" d="M393.01,672v7.99c-3.72.84-1.43-4.87-2-6.99h-17v-1h19Z"/>
  <rect class="cls-4" x="674.01" y="275" width="1" height="29"/>
  <path class="cls-3" d="M464.01,98.01c-.88,2.27-6.01.43-7.99.98.88-2.27,6.01-.43,7.99-.98Z"/>
  <rect class="cls-4" x="674.02" y="231.01" width=".98" height="5.99"/>
  <path class="cls-2" d="M598.01,230c-1,0-2,0-3,0-.01-.33,0-.67,0-1l3,1Z"/>
  <path class="cls-2" d="M637.01,230l-2-1c1-.39,1.89.98,2,1Z"/>
  <path class="cls-2" d="M596.01,374c-.33.03-.67-.05-1,0,.04-.66-.07-1.35,0-2l1,2Z"/>
  <path class="cls-2" d="M430.01,566l-2-1c1-.39,1.89.98,2,1Z"/>
  <rect class="cls-4" x="391.02" y="682.01" width="1.99" height=".98"/>
  <path class="cls-3" d="M558.01,375v-1h1c-.36.29-.63.71-1,1Z"/>
  <path class="cls-4" d="M674.51,270c.65.33.65.67,0,1v-1Z"/>
  <path class="cls-4" d="M674.51,267c.65.33.65.67,0,1v-1Z"/>
  <path class="cls-3" d="M445.01,780h18v17c-4.6-.46-10.11.6-14.56.08-2.02-.24-1.15-2.6-3.44-2.08-.1-4.98.08-10.02,0-15Z"/>
  <path class="cls-3" d="M428.01,781c-.04,5.32.03,10.68,0,16h-16v-17l16,1Z"/>
  <path class="cls-3" d="M446.01,640c-1.97-1.67-.73-5.21-.99-7.5l.99-.5c-.03,2.66.02,5.34,0,8Z"/>
  <path class="cls-1" d="M579.01,631c-.36,12.47.49,25.07,0,37.55-.08,1.93,1.03,4.01-2,3.45.03-7.31-.14-14.69,0-22l.98-.5-.98-.5c.08-3.59-.3-7.5,0-11,.12-1.36,2.01-4.53,1-7,.32-.06.67.03,1,0Z"/>
  <path class="cls-5" d="M595.01,649v-1c0,.34,0,.67,0,1Z"/>
  <path class="cls-5" d="M595.01,632v-1c0,.34,0,.67,0,1Z"/>
  <path class="cls-5" d="M595.01,660v-1c0,.34,0,.67,0,1Z"/>
  <path class="cls-3" d="M558.01,456v-9c1.68,1.86,1.68,7.14,0,9Z"/>
  <path class="cls-3" d="M540.01,632v-7c1.65,1.26,1.65,5.74,0,7Z"/>
  <path class="cls-3" d="M558.01,392c.02-2.33-.05-4.67,0-7,1.65,1.26,1.65,5.74,0,7Z"/>
  <path class="cls-3" d="M540.01,646c0-1.33,0-2.67,0-4,1.5.32,1.56,3.59,0,4Z"/>
  <path class="cls-3" d="M558.01,468v-3c1.5.14,1.5,2.86,0,3Z"/>
  <path class="cls-3" d="M558.01,427c0-1,0-2,0-3,1.5.14,1.5,2.86,0,3Z"/>
  <path class="cls-3" d="M540.01,529c0-.67,0-1.33,0-2l.99.51-.99,1.49Z"/>
  <path class="cls-3" d="M540.01,743c-.01-.67,0-1.33,0-2l.99.51-.99,1.49Z"/>
  <polygon class="cls-3" points="540.01 697 540.01 696 540.99 696.5 540.01 697"/>
  <path class="cls-3" d="M540.01,693c0-.33,0-.67,0-1l.98.5-.98.5Z"/>
  <path class="cls-3" d="M540.01,721c0-.33,0-.67,0-1l.98.5-.98.5Z"/>
  <path class="cls-3" d="M540.01,729c0-.33,0-.67,0-1l.98.5-.98.5Z"/>
  <path class="cls-3" d="M540.01,737c0-.33,0-.67,0-1l.98.5-.98.5Z"/>
  <polygon class="cls-3" points="540.01 689 540.01 688 540.99 688.5 540.01 689"/>
  <path class="cls-3" d="M540.01,746c-.01-.33,0-.67,0-1l.98.5-.98.5Z"/>
  <polygon class="cls-3" points="541.01 756 540.03 755.5 541.01 755 541.01 756"/>
  <polygon class="cls-3" points="558.01 441 558.01 440 558.99 440.5 558.01 441"/>
  <polygon class="cls-3" points="558.01 473 558.01 472 558.99 472.5 558.01 473"/>
  <path class="cls-3" d="M540.01,532c0-.33,0-.67,0-1l.98.5-.98.5Z"/>
  <path class="cls-3" d="M558.01,398c0-.33,0-.67,0-1l.98.5-.98.5Z"/>
  <path class="cls-3" d="M558.01,395c0-.33,0-.67,0-1l.98.5-.98.5Z"/>
  <path class="cls-3" d="M577.01,638v-7c.33-.04.68.06,1,0,1.01,2.47-.88,5.64-1,7Z"/>
  <path class="cls-3" d="M577.01,650c0-.33,0-.67,0-1l.98.5-.98.5Z"/>
  <path class="cls-3" d="M465.01,376l-1,121h-15v-37.99c-1.75-.23-.95,2.27-1,3.48-.19,4.68.25,9.41.04,14.09-.06,1.29-1.04,2.29-1.04,2.42v-21c3.03.56,1.92-1.53,2-3.45.82-20.78.77-42.38.94-63.08.04-5.43-1.5-10.94-.95-16.47,4.82-.23,9.72.18,14.55-.03l1.45,1.03Z"/>
  <path class="cls-3" d="M447.01,496c-.4-3.45-.11-8.38,0-12,1.7,2.87,1.67,9.33,0,12Z"/>
  <path class="cls-2" d="M574.51,796c.65.33.65.67,0,1v-1Z"/>
  <polygon class="cls-2" points="556.01 941 556 958 542.45 956.07 542.01 941 556.01 941"/>
  <path class="cls-3" d="M232.02,415c.04-5.99-.03-12.01,0-18h55v18c-17.12-1.89-37.52,1.41-55,0Z"/>
  <rect class="cls-3" x="233.02" y="439" width="23" height="1"/>
  <path class="cls-3" d="M276.02,275c-12.79.26-26.77.53-39.51,0-1.23-.05-3.71.76-3.49-1h42v-14h.99c.04,4.99-.02,10.01.01,15Z"/>
  <path class="cls-4" d="M272.02,250v1h-10c-1,0-2,0-3,0-8.65-.03-17.35.02-26,0h-1v-1h40Z"/>
  <path class="cls-3" d="M259.02,251c-6.17,1.77-13.97,1.09-20.51,1.02-1.69-.02-4.45.64-5.49-1.02,8.65.02,17.35-.03,26,0Z"/>
  <polygon class="cls-3" points="272.02 251 276.01 251.99 262.02 251 272.02 251"/>
  <rect class="cls-4" x="327.52" y="324.5" width="9.99" height="1.01" transform="translate(7.41 657.41) rotate(-89.98)"/>
  <rect class="cls-3" x="232.02" y="231" width="43" height="17"/>
  <path class="cls-3" d="M632.01,566c.59-.12,1.35.06,1.99,0-.03,7.65.07,15.35,0,23-5.05-1.65-11.57-1.16-17-1v-8.99s-1,7.99-1,7.99h-19v-20c11.57-.59,23.76,1.24,35-1Z"/>
  <path class="cls-2" d="M617.01,588c5.43-.16,11.95-.65,17,1-.05,6.65.04,13.35,0,20.01-.66.05-1.33-.04-2,0l-17.51-1.99h-18.49c-.3-6.25,1.03-12.73,1-18.01,6.73.4,13.3-.8,20-1Z"/>
  <path class="cls-1" d="M632.01,566c-11.24,2.24-23.43.41-35,1v20h19l.99-7.99v8.99c-6.69.2-13.26,1.4-19.99,1,0-.13-1.04-1.16-1.03-2.43.03-6.86.04-13.73.03-20.58h36Z"/>
  <path class="cls-3" d="M632.01,609c-11.93.58-24.06-.43-36.01,0-.05-.66.04-1.33,0-2h18.49s17.51,2,17.51,2Z"/>
  <polygon class="cls-2" points="617.01 457 597.01 457 597.01 440 633.01 440 633.01 457 633.01 457 618.01 457 597.01 457 597.01 440 633.01 440 633.01 457 617.01 457"/>
  <path class="cls-1" d="M595.01,307v5c.02,2.33-.03,4.67,0,7s-.02,4.67,0,7v1c.03,6.32.04,12.68,0,19-.05,7.31.19,14.69,0,22-.03,1.32.13,2.7,0,4-.07.65.04,1.34,0,2-5.02.7-11.33-.52-16.55.03l-1.45-1.03h17s0-76,0-76h1c.15,3.31-.1,6.68,0,10Z"/>
  <path class="cls-1" d="M629.01,416c1.66.08,3.34-.05,5,0-.05,7.98.07,16.02,0,24-.28-.3-.96-.7-1-1-.09-.62.02-1.35,0-2-.08-1.99.02-4,0-6-.01-1.33.02-2.67,0-4,0-.33,0-.67,0-1-.07-2.99.05-6.01,0-9.01-4.32-.03-8.68.06-13,0-.67,0-1.33,0-2,0-.33,0-.67,0-1,0h-20c-.23,6.82.32,13.74.05,20.58-.05,1.29-1.04,2.29-1.04,2.42.97-7.02-1.32-17.48,0-24h1c10.62.36,21.39-.49,32,0Z"/>
  <path class="cls-3" d="M617.01,417l.5,9.01.5-9.01c.67,0,1.33,0,2,0l12,1,1,8c0,.33,0,.67,0,1l-16.01.5c0,2.13,16.1-2.43,16.01,3.5.02,2-.08,4.01,0,6l-1,.52,1,1.48c.04.3.72.7,1,1-.05,5.99.04,12.01,0,18l-2,1c-4.47.42-9.46-.3-14.01,0v-2h15.01v-17h-36v17h20c-.7,2.3-2.58,1.93-4.45,2.06-5.38.36-11.14-.38-16.56-.05.15-6.31-.19-12.69,0-19.01,0-.13.99-1.13,1.04-2.42.27-6.83-.28-13.75-.05-20.58h20ZM617.01,430.01v8.99s1,0,1,0v-8.99s-1,0-1,0Z"/>
  <path class="cls-2" d="M634.01,416c-1.66-.05-3.34.08-5,0,.66-1.58,4.34-1.58,5,0Z"/>
  <path class="cls-2" d="M634.01,458c-.12,1.26-1.11.92-2,1l2-1Z"/>
  <path class="cls-2" d="M597.01,416h-1c.08-.42-.11-.81.5-.98l.5.98Z"/>
  <path class="cls-5" d="M463.01,277v19.01s-6.01.49-6.01.49l6.01.5v17l-9.01.5,10.01.51c.5.36-1,1.28-1,1.49v19.5h-14v1h15c.27.73-1,1.2-1,1.5v15.5h-16v-77h16Z"/>
  <path class="cls-3" d="M411.01,250c.56-3.02-1.53-1.94-3.45-2-4.51-.15-9.05.11-13.54,0v-17h33c.24,5.16-.31,10.42-.04,15.58.07,1.29,1.04,2.29,1.04,2.42.37,8.94-.1,18.04,0,27-11.65-.05-23.35.06-35,0,0-8.65,0-17.35,0-26h1v24h33v-24c-5.32-.03-10.68.04-16,0Z"/>
  <rect class="cls-2" x="429.01" y="277" width="16" height="38"/>
  <path class="cls-2" d="M427.01,440h1v19c-5.65-.04-11.35.03-17,0-.03-6.32.05-12.68,0-19,5.3-.22,10.69.16,16,0Z"/>
  <polygon class="cls-5" points="463.01 355 464.01 373 447.01 373 447.01 355 463.01 355"/>
  <path class="cls-1" d="M449.01,375c-.55,5.53.99,11.04.95,16.47-.17,20.7-.12,42.29-.94,63.08-.08,1.93,1.03,4.01-2,3.45v-2c1.66-1.04,1-3.79,1.02-5.49.09-7,.07-14.03,0-21.03-.02-1.69.64-4.45-1.02-5.49.02-9.32-.06-18.68,0-28l.98-.5-.98-.5c.05-6.65-.04-13.35,0-20.01.66-.05,1.33.04,2,0Z"/>
  <path class="cls-1" d="M428.01,415v25h-1v-23h-33v22h16c.07-2.49-.11-5.02,0-7.51.05-1.22-.76-3.72.99-3.48.04,3.99-.02,8.01.01,11.99-5.84.24-11.9,1.78-18,1v-25c11.78-.12,23.29-.52,35-1Z"/>
  <path class="cls-3" d="M446.01,315h-1v-38l1.03,1.45c-.01,12.18-.07,24.38-.03,36.55Z"/>
  <path class="cls-3" d="M447.01,456c0-10.65-.03-21.35,0-32,1.66,1.04,1,3.79,1.02,5.49.07,7,.09,14.03,0,21.03-.02,1.69.64,4.45-1.02,5.49Z"/>
  <path class="cls-3" d="M447.01,396c0-.33,0-.67,0-1l.98.5-.98.5Z"/>
  <path class="cls-2" d="M633.01,242c.16,3.28.71,5.49,1,8,1,8.61,1.05,17.07,1,26-12.7-.14-25.3-1.06-38-1v-25.01s16.49,0,16.49,0l18.51-1.99h-15v-3s1,2,1,2h14v-4c-2.48-.09-5.01.1-7.51,0-1.22-.05-3.72.76-3.48-.99h11.99Z"/>
  <path class="cls-1" d="M598.01,230c11.99-.05,24.02.04,36,0v20.01c-.3-2.51-.85-4.72-1.01-8-.03-.66.02-1.33,0-2-.08-2.99.06-6.02,0-9.01-5.32-.02-10.68.05-16,0-6.65-.05-13.35.04-20,0-.23,5.49.32,11.09.05,16.58-.06,1.29-1.04,2.29-1.04,2.42-.19-5.49.26-11.06,0-16.55-.07-1.47-.99-2.89-1.01-3.45,1,0,2,0,3,0Z"/>
  <path class="cls-3" d="M617.01,231c2.12,2.43,14.1.09,15,1l1,8c.02.67-.03,1.34,0,2h-11.99c-.23,1.76,2.26.95,3.48,1,2.5.11,5.03-.08,7.52,0v4h-14l-.99-2v3s14.99,0,14.99,0l-18.51,1.99h-16.49s0,25.01,0,25.01l-.99,1c.23-8.63-.35-17.37-.01-26,0-.13.98-1.13,1.04-2.42.27-5.5-.28-11.09-.05-16.58,6.65.05,13.35-.05,20,0ZM617.51,233v1c.65-.33.65-.67,0-1ZM617.51,236v1c.65-.33.65-.67,0-1ZM619,239.01h-1.99v.98h1.99v-.98ZM630,239.01c-2.15.05-4.35-.11-6.51,0-1.22.06-3.71-.76-3.48.99,2.15-.05,4.35.11,6.51,0,1.22-.06,3.71.76,3.48-.99ZM617.51,242v1c.65-.33.65-.67,0-1Z"/>
  <path class="cls-2" d="M595.01,368c.19-7.31-.05-14.69,0-22,1.67,6.45,1.67,15.55,0,22Z"/>
  <path class="cls-2" d="M595.01,319c-.03-2.33.02-4.67,0-7,1.65,1.26,1.65,5.74,0,7Z"/>
  <path class="cls-2" d="M595.01,327v-1c0,.34,0,.67,0,1Z"/>
  <path class="cls-3" d="M428.01,568c.65,13.32-.04,27.56,0,41-11.64.18-23.36-.25-35,0-.03-6.99,0-14.01,0-21h1c.04,6.32-.03,12.68,0,19h16l.99-7.99v8.99h14.51l1.5-1.5v-18.5h-14l-.51-8.01-2.43,7.57-16.06.44c-.04-6.99.03-14.02,0-21.01l34,1.01Z"/>
  <path class="cls-1" d="M393.01,566c11.65-.12,23.35.09,35.01,0,.05.66-.04,1.33,0,2l-34-1.01c.04,6.99-.04,14.02,0,21.01h-1c0-7.32-.04-14.68,0-22Z"/>
  <path class="cls-3" d="M411.01,440c-.03-3.99.03-8.01-.01-11.99-1.75-.23-.94,2.26-.99,3.48-.11,2.5.07,5.03,0,7.51h-16v-22h33v23c-5.31.16-10.7-.22-16,0,.05,6.32-.03,12.68,0,19-5.99-.03-12.01.07-18,0v-18c6.1.78,12.16-.76,18-1ZM410.01,418.01v8.99s1,0,1,0v-8.99s-1,0-1,0Z"/>
  <path class="cls-3" d="M594.01,297v76.01s-17,0-17,0c.02-25.32-.03-50.68,0-76h17Z"/>
  <rect class="cls-3" x="429.01" y="316" width="16.05" height="57"/>
  <path class="cls-2" d="M411.01,250c5.32.04,10.68-.03,16,0v24h-33v-24c5.65.03,11.35-.05,17,0Z"/>
  <path class="cls-2" d="M620.01,417c4.32.05,8.68-.04,13,0,.05,2.99-.08,6.01,0,9.01l-1-8-12-1Z"/>
  <path class="cls-2" d="M633.01,427c.02,1.33-.01,2.67,0,4,.09-5.93-16.01-1.37-16.01-3.5l16.01-.5Z"/>
  <path class="cls-2" d="M618.01,417l-.5,9.01-.5-9.01c.33,0,.67,0,1,0Z"/>
  <path class="cls-2" d="M633.01,439l-1-1.48,1-.52c.02.65-.09,1.38,0,2Z"/>
  <path class="cls-2" d="M617.01,231c5.32.04,10.68-.03,16,0,.06,2.99-.09,6.02,0,9.01l-1-8c-.91-.9-12.89,1.43-15-1Z"/>
  <path class="cls-2" d="M394.01,588l16.06-.44,2.43-7.57.51,8.01h14v18.5l-1.5,1.5h-14.5v-8.99s-1,7.99-1,7.99h-16c-.03-6.32.04-12.68,0-19Z"/>
  <rect class="cls-2" x="613.01" y="434" width="8.99" height="1.01" transform="translate(182.78 1051.85) rotate(-89.98)"/>
  <rect class="cls-1" x="406.02" y="422" width="8.99" height="1.01" transform="translate(-12.14 832.86) rotate(-89.98)"/>
  <path class="cls-2" d="M630,239.01c.23,1.75-2.26.93-3.48.99-2.16.1-4.35-.06-6.51,0-.23-1.75,2.26-.93,3.48-.99,2.16-.1,4.35.06,6.51,0Z"/>
  <rect class="cls-2" x="617.01" y="239.01" width="1.99" height=".98"/>
  <path class="cls-2" d="M617.51,236c.65.33.65.67,0,1v-1Z"/>
  <path class="cls-2" d="M617.51,242c.65.33.65.67,0,1v-1Z"/>
  <path class="cls-2" d="M617.51,233c.65.33.65.67,0,1v-1Z"/>
</svg>